<?xml version="1.0" encoding="UTF-8"?>
<svg version="1.1" xmlns="http://www.w3.org/2000/svg" width="1298" height="1030">
<path d="M0 0 C1.21526367 0.00338379 2.43052734 0.00676758 3.68261719 0.01025391 C11.04361048 0.05193454 18.39584348 0.17405791 25.75 0.5 C26.91692383 0.54616455 26.91692383 0.54616455 28.10742188 0.59326172 C32.29632459 0.81523304 36.03230284 1.46838495 40.09448242 2.58447266 C43.20234104 3.28281823 46.30960343 3.62528294 49.47265625 4 C57.81703159 5.05947184 65.80846828 7.00396688 73.9375 9.125 C75.34289639 9.48516635 76.74849522 9.84454371 78.15429688 10.203125 C80.8069662 10.88081996 83.45810057 11.5637076 86.10864258 12.24975586 C88.74918079 12.931228 91.39153669 13.60037285 94.0390625 14.25390625 C111.6290868 18.68119228 129.0471267 24.44317065 145.5 32.125 C146.44617188 32.55296875 147.39234375 32.9809375 148.3671875 33.421875 C161.43257073 39.36358962 174.22866353 45.6627008 186.5 53.125 C187.21414063 53.55425781 187.92828125 53.98351563 188.6640625 54.42578125 C197.96647285 60.11470551 206.7170711 66.67707379 215.5 73.125 C216.0460791 73.52074219 216.5921582 73.91648437 217.15478516 74.32421875 C218.83690245 75.54338121 220.51266518 76.77085927 222.1875 78 C223.20199219 78.73992187 224.21648438 79.47984375 225.26171875 80.2421875 C226.00035156 80.86351563 226.73898437 81.48484375 227.5 82.125 C227.5 82.785 227.5 83.445 227.5 84.125 C228.37785156 84.52525391 228.37785156 84.52525391 229.2734375 84.93359375 C231.54730176 86.15031059 233.21165914 87.46549323 235.125 89.1875 C235.8159375 89.80496094 236.506875 90.42242187 237.21875 91.05859375 C237.9715625 91.74050781 238.724375 92.42242187 239.5 93.125 C241.20804552 94.66698554 242.91638575 96.20864468 244.625 97.75 C245.46675781 98.51054688 246.30851563 99.27109375 247.17578125 100.0546875 C249.02679824 101.70349255 250.89390629 103.30658663 252.8125 104.875 C256.54567292 108.00044709 259.81305697 111.27535994 262.875 115.0625 C264.67091487 117.27114064 266.53073739 119.0329991 268.75 120.8125 C272.73189123 124.12502159 275.80901778 128.00602662 279.02734375 132.046875 C282.16339818 135.95084165 285.41672545 139.74798088 288.69433594 143.53344727 C291.59479518 146.92283802 294.07634167 150.3942001 296.5 154.125 C297.59701184 155.44151338 297.59701184 155.44151338 300.3125 155.3125 C304.57214635 155.06193257 306.5391579 154.17107809 309.4375 151.015625 C310.118125 150.14421875 310.79875 149.2728125 311.5 148.375 C315.13354683 143.80453862 318.86131317 139.34776499 322.6875 134.9375 C325.98194277 131.13510805 329.17223585 127.32900182 332.125 123.25 C332.90875 122.21875 333.6925 121.1875 334.5 120.125 C335.16 120.125 335.82 120.125 336.5 120.125 C336.768125 119.526875 337.03625 118.92875 337.3125 118.3125 C338.49917406 116.12652146 339.59599113 114.71167406 341.5 113.125 C342.16 113.125 342.82 113.125 343.5 113.125 C343.76167969 112.54621094 344.02335938 111.96742187 344.29296875 111.37109375 C348.79212012 102.99888651 357.16348982 96.34843142 364.21875 90.1875 C365.81304244 88.74608492 367.35710786 87.24802541 368.859375 85.7109375 C371.82794097 82.8038507 374.96355123 80.28310807 378.25 77.75 C378.86689697 77.27103271 379.48379395 76.79206543 380.11938477 76.29858398 C381.34905757 75.34392096 382.57958528 74.39035791 383.81103516 73.43798828 C385.27224975 72.30205129 386.72128286 71.15047707 388.16796875 69.99609375 C391.36465161 67.44865112 394.47877488 65.03917349 398.0625 63.0625 C400.72524066 61.56168254 402.87233231 60.11644502 405.25 58.25 C409.13762971 55.25893606 413.24709045 52.97327379 417.59375 50.71484375 C419.84660503 49.48243515 421.97994546 48.20321146 424.140625 46.82421875 C446.61383658 32.66493378 471.93290715 22.19393782 497.5 15.125 C499.12010986 14.66697998 499.12010986 14.66697998 500.77294922 14.19970703 C515.14717814 10.1522618 529.42980444 6.27574021 544.28442383 4.44116211 C545.87478514 4.21421799 547.4580556 3.93530887 549.03393555 3.62329102 C558.38259118 1.80905972 567.57732629 1.77328966 577.0625 1.8125 C577.93016998 1.81365814 578.79783997 1.81481628 579.69180298 1.81600952 C613.17893177 1.90357107 649.93438102 3.52092117 681.62890625 15.1953125 C683.94271036 15.94454431 686.10737536 16.47570399 688.48046875 16.95703125 C694.90333601 18.34035654 701.05091456 20.53599039 707.25 22.6875 C708.20592041 23.01888474 708.20592041 23.01888474 709.18115234 23.35696411 C727.66943192 29.78948897 745.09335293 37.61535845 762.3046875 46.93701172 C764.15573804 47.93870344 766.01452247 48.92608422 767.875 49.91015625 C774.29603545 53.33045212 780.41494379 57.14106185 786.5 61.125 C787.24894531 61.60710937 787.99789063 62.08921875 788.76953125 62.5859375 C802.57398733 71.58992507 815.34389339 82.02759007 827.5 93.125 C829.2287478 94.66713635 830.95791059 96.20880762 832.6875 97.75 C836.76262476 101.41633481 840.66982049 105.20528383 844.5 109.125 C845.28375 109.90875 846.0675 110.6925 846.875 111.5 C849.25 113.875 851.625 116.25 854 118.625 C854.77988281 119.40359375 855.55976562 120.1821875 856.36328125 120.984375 C857.98098033 122.60503148 859.58703852 124.23731848 861.1875 125.875 C863.48963621 128.20012297 863.48963621 128.20012297 866.25 130.25 C871.05129782 134.1749684 874.68648761 139.27629598 878.5 144.125 C879.43392578 145.31222656 879.43392578 145.31222656 880.38671875 146.5234375 C881.53650936 147.996203 882.67986581 149.47401659 883.81640625 150.95703125 C884.94567291 152.41119134 886.09994284 153.84624997 887.27734375 155.26171875 C891.43077297 160.32399463 894.37772237 165.48864497 897.140625 171.42578125 C898.40207858 173.93056408 899.79921689 175.91002665 901.5 178.125 C904.89454388 183.87309431 907.88715849 189.77147541 910.51171875 195.90625 C911.54318459 198.22195197 912.69676017 200.44323365 913.875 202.6875 C916.44934531 207.75673553 918.419401 212.99207608 920.35693359 218.32836914 C921.49145145 221.45275833 922.66540544 224.50276191 924 227.55078125 C925.73210902 231.67807227 927.06609863 235.84890612 928.375 240.125 C928.89872803 241.81151238 929.42348078 243.49770685 929.94921875 245.18359375 C930.33859619 246.43245361 930.33859619 246.43245361 930.73583984 247.70654297 C932.23018547 252.43593205 933.82993667 257.1295666 935.41796875 261.828125 C936.3552071 264.68382598 937.19535648 267.5425814 938 270.4375 C938.95916275 273.77018414 940.21798584 276.49477009 941.9375 279.5 C944.50843724 284.43216057 945.65505344 289.40163485 946.75 294.8125 C946.99447876 295.99561768 946.99447876 295.99561768 947.24389648 297.20263672 C949.56648338 309.51321159 949.65674148 322.15244336 949.66796875 334.640625 C949.67120278 335.98940054 949.67456821 337.33817577 949.67805481 338.68695068 C949.68398289 341.49703784 949.68590165 344.30709456 949.68530273 347.1171875 C949.68522208 349.93431097 949.69207787 352.7512697 949.70581055 355.56835938 C950.02180787 421.49468085 950.02180787 421.49468085 935.76953125 448.390625 C931.6092002 456.28882523 928.81539154 463.94683382 926.453125 472.54931641 C926.22496094 473.37351074 925.99679687 474.19770508 925.76171875 475.046875 C925.56537842 475.78518555 925.36903809 476.52349609 925.16674805 477.28417969 C924.5 479.125 924.5 479.125 922.5 481.125 C921.90751924 482.98456832 921.37583366 484.86368258 920.875 486.75 C918.62487417 494.3716668 915.1966228 501.17693317 911.50537109 508.19067383 C910.44630073 510.22831697 909.42870629 512.28366499 908.4140625 514.34375 C906.70362865 517.7800835 904.76414407 520.96745722 902.6484375 524.16796875 C901.42496722 526.12923703 901.42496722 526.12923703 900.61328125 528.44921875 C899.21701751 531.80515089 897.30818518 534.73038348 895.3125 537.75 C894.49965274 538.99456493 893.6871567 540.23935932 892.875 541.484375 C892.4728125 542.09861328 892.070625 542.71285156 891.65625 543.34570312 C890.01078724 545.87782571 888.41424571 548.44006712 886.8125 551 C884.29721313 554.96596394 881.63424978 558.75413453 878.76171875 562.46875 C877.61336957 563.97618051 876.55116091 565.54825864 875.5 567.125 C874.84 567.125 874.18 567.125 873.5 567.125 C873.26410156 568.00800781 873.02820312 568.89101563 872.78515625 569.80078125 C871.35018028 573.51252759 869.69172037 575.46345514 866.9375 578.3125 C863.47369969 581.98502285 860.16002028 585.68764853 857 589.625 C853.77681069 593.60658679 850.48049465 597.49821611 847.0625 601.3125 C846.23878906 602.23417969 845.41507813 603.15585937 844.56640625 604.10546875 C842.5 606.125 842.5 606.125 840.5 606.125 C840.273125 606.7025 840.04625 607.28 839.8125 607.875 C838.15238361 610.72091381 836.10812043 612.12341921 833.5 614.125 C832.7884375 614.85203125 832.076875 615.5790625 831.34375 616.328125 C827.84486999 619.76933117 824.11499837 622.84010066 820.3125 625.9375 C819.55291992 626.55915039 818.79333984 627.18080078 818.01074219 627.82128906 C815.84336219 629.59274988 813.67259054 631.35993558 811.5 633.125 C810.54996094 633.89714844 809.59992188 634.66929687 808.62109375 635.46484375 C803.11083696 639.90391388 797.51009751 644.22409767 791.890625 648.5234375 C789.55839025 650.30858808 787.23688884 652.10663874 784.921875 653.9140625 C784.33833252 654.36797363 783.75479004 654.82188477 783.15356445 655.28955078 C782.03804234 656.1576552 780.92448242 657.02828903 779.81323242 657.90185547 C777.13833034 659.97765772 774.53825992 661.64965871 771.5 663.125 C770.36748593 664.29082331 769.23654861 665.45826094 768.1171875 666.63671875 C766.05353457 668.53587761 763.81742536 670.0468127 761.5 671.625 C757.75270117 674.18048041 754.66794901 676.8690524 751.5 680.125 C750.07709939 681.06457273 748.65360749 682.00327194 747.22607422 682.93579102 C743.97521064 685.17553027 740.97786017 687.73614754 737.9375 690.25 C731.96317775 695.14893053 725.91602325 699.91499707 719.7734375 704.6015625 C715.51396102 707.86672958 711.337292 711.23463567 707.15380859 714.59619141 C702.41472597 718.40179994 697.6415953 722.16116538 692.84887695 725.89892578 C689.66929675 728.38838188 686.52764446 730.91578716 683.41796875 733.4921875 C677.05796147 738.75497443 670.93723578 743.70861967 663.7109375 747.75390625 C660.44275759 749.78063973 657.76890527 752.33730177 654.953125 754.94140625 C651.70459106 757.83301528 648.26193199 760.43313075 644.79418945 763.05493164 C640.93470967 765.98689218 637.17464028 769.01874981 633.43896484 772.10668945 C627.4608869 777.04740752 621.56484948 781.66064628 614.83203125 785.5625 C612.01945524 787.44697304 609.87494398 789.71707069 607.5 792.125 C605.75741631 793.51533094 603.98454296 794.86831288 602.1875 796.1875 C601.13949219 796.96222656 600.09148438 797.73695313 599.01171875 798.53515625 C598.44759277 798.95039551 597.8834668 799.36563477 597.30224609 799.79345703 C594.02047847 802.21810626 590.76199358 804.67385147 587.5 807.125 C583.78575145 809.91418547 580.07067191 812.70175755 576.33984375 815.46875 C569.53344988 820.52545177 562.89862548 825.76838307 556.29296875 831.08203125 C551.5545642 834.89138431 546.77177139 838.64317217 541.984375 842.390625 C539.59028085 844.26532245 537.20623051 846.15194013 534.828125 848.046875 C529.32217103 852.42445735 523.82054234 856.66334702 517.90234375 860.4765625 C509.50398581 866.23933819 501.66989917 872.9407336 493.78125 879.37109375 C492.10391871 880.66068579 490.37016906 881.87771169 488.609375 883.05078125 C484.28779753 885.9336426 480.22173477 889.12565229 476.109375 892.296875 C473.5 894.125 473.5 894.125 471.5 894.125 C471.29375 894.69476562 471.0875 895.26453125 470.875 895.8515625 C469.01370984 898.92903657 466.42894736 900.53843376 463.5 902.5 C457.60631523 906.57508876 451.89473485 910.83653289 446.25 915.25 C445.477771 915.85328125 444.70554199 916.4565625 443.90991211 917.078125 C439.93773628 920.19067949 435.98847122 923.32926331 432.0625 926.5 C427.93620849 929.82219367 423.68558675 932.94207875 419.3828125 936.03125 C417.31666078 937.53186968 415.27301838 939.04690779 413.2421875 940.59375 C412.43080322 941.21068726 412.43080322 941.21068726 411.60302734 941.84008789 C410.07693238 943.00383408 408.55400487 944.17173047 407.03125 945.33984375 C404.5 947.125 404.5 947.125 401.5 948.125 C401.5 948.785 401.5 949.445 401.5 950.125 C399.77731422 951.51998465 397.99360204 952.8398448 396.1875 954.125 C391.91245106 957.22648129 387.93048569 960.45123903 384.0625 964.0625 C378.71261372 969.02915661 373.03135279 973.43044273 367.21337891 977.81884766 C364.23556078 980.0889142 361.30921976 982.42405005 358.375 984.75 C354.2367185 988.02568907 350.05520946 991.19390765 345.75 994.25 C341.09638534 997.56715684 336.97709296 1001.25598241 332.88671875 1005.2421875 C330.19512226 1007.36550911 327.7862677 1008.22400308 324.5 1009.125 C324.5 1009.785 324.5 1010.445 324.5 1011.125 C321.0144226 1014.03700137 317.24242918 1016.55557101 313.5 1019.125 C312.84902344 1019.59164062 312.19804688 1020.05828125 311.52734375 1020.5390625 C306.95848751 1023.54176235 302.77569492 1024.02837242 297.5 1023.125 C293.7103924 1021.8531454 290.33679705 1020.69770368 288.3984375 1017.0546875 C287.95371094 1016.09949219 287.95371094 1016.09949219 287.5 1015.125 C285.58333333 1013.95833333 285.58333333 1013.95833333 283.5 1013.125 C282.51 1012.465 281.52 1011.805 280.5 1011.125 C280.5 1010.465 280.5 1009.805 280.5 1009.125 C279.984375 1008.898125 279.46875 1008.67125 278.9375 1008.4375 C274.54856671 1006.07422823 270.66528541 1003.31374753 267.171875 999.75 C263.42479214 996.06865543 259.20872796 993.1704682 254.94921875 990.11328125 C254.14097656 989.45714844 253.33273437 988.80101562 252.5 988.125 C252.5 987.465 252.5 986.805 252.5 986.125 C251.92765625 985.85171875 251.3553125 985.5784375 250.765625 985.296875 C244.06329667 981.83015345 237.0991274 977.19015067 231.5 972.125 C231.5 971.465 231.5 970.805 231.5 970.125 C230.97921875 969.89554688 230.4584375 969.66609375 229.921875 969.4296875 C226.64563132 967.66474332 223.72800699 965.46695646 220.75 963.25 C220.09604248 962.7660376 219.44208496 962.2820752 218.76831055 961.78344727 C217.38198757 960.75610793 215.99684181 959.72717839 214.61279297 958.69677734 C212.53843629 957.15359404 210.45900027 955.61746842 208.37890625 954.08203125 C201.12083795 948.70385042 194.04998626 943.18446824 187.15234375 937.3515625 C184.15002347 934.83120527 181.07879679 932.42145615 177.97265625 930.03125 C174.82133783 927.60179757 171.69124544 925.14591924 168.5625 922.6875 C167.95986328 922.21425293 167.35722656 921.74100586 166.73632812 921.25341797 C162.45891443 917.89011029 158.20675244 914.49682698 153.9765625 911.07421875 C149.28598119 907.38242052 144.47861034 903.84463436 139.67578125 900.30078125 C133.29425374 895.58002012 127.00740181 890.81689608 121 885.625 C115.68790263 881.03524858 110.16908879 876.79702843 104.52929688 872.61865234 C99.96170703 869.23260153 95.45932414 865.77735379 91 862.25 C87.52752889 859.50376924 84.05651533 856.76224654 80.5 854.125 C76.99258769 851.52033938 73.55639866 848.82848271 70.125 846.125 C57.43616507 836.13249931 44.70556433 826.20658833 31.7578125 816.55078125 C31.19094727 816.12619629 30.62408203 815.70161133 30.04003906 815.26416016 C28.72762196 814.29337097 27.39324131 813.3523905 26.0546875 812.41796875 C25.54164063 811.99128906 25.02859375 811.56460938 24.5 811.125 C24.5 810.465 24.5 809.805 24.5 809.125 C23.63503906 808.898125 22.77007812 808.67125 21.87890625 808.4375 C18.04878357 806.9497298 15.43854297 804.83539408 12.4375 802.125 C11.29899767 801.12907862 10.15831022 800.13565053 9.015625 799.14453125 C8.43619141 798.64131348 7.85675781 798.1380957 7.25976562 797.61962891 C-1.22368114 790.41434851 -10.3670109 783.94797057 -19.2890625 777.30078125 C-31.47118048 768.21570527 -43.39159585 758.83076103 -55.24633789 749.32421875 C-59.16629208 746.18292422 -63.11343934 743.0813543 -67.08984375 740.01171875 C-69.01128809 738.50757351 -70.91716736 736.98888162 -72.81640625 735.45703125 C-79.34108892 730.19530231 -85.90632656 725.01270336 -92.625 720 C-93.2938623 719.50097168 -93.96272461 719.00194336 -94.65185547 718.48779297 C-95.97210126 717.50332851 -97.2924124 716.51895166 -98.61279297 715.53466797 C-105.7883506 710.17481418 -112.84613875 704.73516112 -119.625 698.875 C-126.45988469 692.97882106 -133.72144365 687.69078494 -141.01953125 682.38671875 C-142.13255615 681.57533447 -142.13255615 681.57533447 -143.26806641 680.74755859 C-144.79173314 679.63989188 -146.32029196 678.53893127 -147.85302734 677.44384766 C-148.58602051 676.91194824 -149.31901367 676.38004883 -150.07421875 675.83203125 C-150.73381592 675.35870361 -151.39341309 674.88537598 -152.07299805 674.39770508 C-152.77936401 673.76771606 -152.77936401 673.76771606 -153.5 673.125 C-153.5 672.465 -153.5 671.805 -153.5 671.125 C-154.3353125 671.0321875 -154.3353125 671.0321875 -155.1875 670.9375 C-157.5 670.125 -157.5 670.125 -159.79296875 667.80859375 C-162.43526772 665.18917183 -164.98723319 663.35407664 -168.125 661.375 C-173.33618307 657.98389925 -178.08191227 654.27387953 -182.84375 650.28515625 C-186.1487559 647.5974088 -189.60725269 645.19870427 -193.1171875 642.7890625 C-197.03283387 640.05452913 -200.75488967 637.08651801 -204.5 634.125 C-205.59590725 633.26765759 -206.69229556 632.41092988 -207.7890625 631.5546875 C-220.89543083 621.31347426 -233.75750153 610.94135066 -245.5 599.125 C-246.30179687 598.34640625 -247.10359375 597.5678125 -247.9296875 596.765625 C-252.57313315 592.22602638 -256.84165252 587.65729839 -260.73046875 582.45703125 C-262.70130567 579.85970312 -264.78105624 577.37398988 -266.875 574.875 C-270.28874225 570.7209281 -273.48719336 566.46909231 -276.5625 562.0625 C-276.95679199 561.50208008 -277.35108398 560.94166016 -277.75732422 560.36425781 C-280.5 556.37245473 -280.5 556.37245473 -280.5 554.125 C-281.49 553.795 -282.48 553.465 -283.5 553.125 C-284.89453125 551.36254883 -284.89453125 551.36254883 -286.3125 549.08203125 C-287.08980469 547.84163086 -287.08980469 547.84163086 -287.8828125 546.57617188 C-288.41648437 545.70541016 -288.95015625 544.83464844 -289.5 543.9375 C-290.03367187 543.08607422 -290.56734375 542.23464844 -291.1171875 541.35742188 C-293.80499057 537.03487292 -296.29001252 532.71497399 -298.5 528.125 C-299.79459194 525.65707553 -301.11794861 523.20465271 -302.4375 520.75 C-305.20645998 515.57863401 -307.91337335 510.39063283 -310.5 505.125 C-310.82484375 504.49722656 -311.1496875 503.86945313 -311.484375 503.22265625 C-313.74698491 498.82797162 -315.63369125 494.36772864 -317.43359375 489.765625 C-318.55237671 486.99530528 -319.75886339 484.28009576 -321 481.5625 C-321.4228125 480.63566406 -321.845625 479.70882813 -322.28125 478.75390625 C-323.01515939 477.17082606 -323.76141094 475.59326639 -324.53125 474.02734375 C-329.25253509 464.14691246 -332.27746745 452.99014391 -334.04296875 442.203125 C-334.46059637 440.02602058 -334.46059637 440.02602058 -335.48828125 437.69140625 C-336.53264918 435.0421795 -337.04509544 432.61909866 -337.5 429.8125 C-338.05111982 426.57897666 -338.63984667 423.41509546 -339.5 420.25 C-340.71498484 415.65583859 -341.29974404 410.97688769 -341.9375 406.2734375 C-342.4254574 403.09984975 -342.4254574 403.09984975 -343.52734375 400.05859375 C-344.46974254 397.21625846 -344.85034125 394.78723645 -345.0625 391.8125 C-345.06002019 388.66326567 -345.06002019 388.66326567 -346.5 386.125 C-346.59905152 384.28927369 -346.62799207 382.44972425 -346.62939453 380.61132812 C-346.63254669 379.43340698 -346.63569885 378.25548584 -346.63894653 377.04187012 C-346.6369223 375.75961548 -346.63489807 374.47736084 -346.6328125 373.15625 C-346.63376923 371.85046997 -346.63472595 370.54468994 -346.63571167 369.19934082 C-346.63718833 366.43187278 -346.63503511 363.66443696 -346.63037109 360.89697266 C-346.62467381 357.34237351 -346.62795298 353.78784986 -346.63394356 350.23325348 C-346.63841747 346.85341286 -346.63528886 343.47359277 -346.6328125 340.09375 C-346.63483673 338.81149536 -346.63686096 337.52924072 -346.63894653 336.20812988 C-346.63579437 335.03020874 -346.63264221 333.8522876 -346.62939453 332.63867188 C-346.62859894 331.59578003 -346.62780334 330.55288818 -346.62698364 329.47839355 C-346.5 327.125 -346.5 327.125 -345.5 326.125 C-345.05073333 322.60637361 -344.68019835 319.08882825 -344.33789062 315.55859375 C-343.8917446 311.35829218 -343.09718322 308.05219169 -341.5 304.125 C-341.10462236 301.4699293 -340.76742969 298.85436831 -340.5 296.1875 C-340.00229137 291.25188941 -339.11777948 286.82607685 -337.5 282.125 C-337.14519013 280.00665366 -336.83335281 277.8807088 -336.5625 275.75 C-335.79145932 270.46627937 -334.57246087 266.01215191 -332.5 261.125 C-330.25427004 255.29415854 -328.26243102 249.40931536 -326.43530273 243.43603516 C-320.33340747 223.55855853 -311.61845031 205.25497395 -301.5 187.125 C-301.13745117 186.46483887 -300.77490234 185.80467773 -300.40136719 185.12451172 C-293.88134138 173.28740744 -287.1130534 161.57108785 -278.5 151.125 C-277.59883743 149.8997351 -276.70311107 148.67045579 -275.8125 147.4375 C-272.4606957 142.93855412 -268.77840039 138.73238255 -265.11254883 134.48974609 C-259.70916966 128.23160933 -254.36483816 121.91143132 -249.375 115.31640625 C-248.75625 114.59324219 -248.1375 113.87007813 -247.5 113.125 C-246.84 113.125 -246.18 113.125 -245.5 113.125 C-245.273125 112.57328125 -245.04625 112.0215625 -244.8125 111.453125 C-243.11274074 108.43807583 -240.95195184 106.31269631 -238.5 103.875 C-237.613125 102.98296875 -236.72625 102.0909375 -235.8125 101.171875 C-233.5 99.125 -233.5 99.125 -231.5 99.125 C-231.273125 98.5475 -231.04625 97.97 -230.8125 97.375 C-229.1591307 94.54065264 -227.07036056 93.15737811 -224.5 91.125 C-223.7575 90.196875 -223.015 89.26875 -222.25 88.3125 C-218.90381962 84.18861409 -214.73961229 81.27857462 -210.5 78.125 C-209.23601911 77.15880675 -207.97307724 76.19125336 -206.7109375 75.22265625 C-200.38504447 70.38982177 -194.13189451 65.61915025 -187.18408203 61.70239258 C-184.11437936 59.89837685 -181.1636903 57.94866829 -178.19140625 55.98828125 C-171.19799948 51.44390596 -163.97827489 47.44002108 -156.59594727 43.56738281 C-154.56315443 42.50034352 -152.53619442 41.42281784 -150.50976562 40.34375 C-136.15824603 32.73519963 -121.89182384 26.230402 -106.4375 21.1875 C-105.2777063 20.80489014 -105.2777063 20.80489014 -104.09448242 20.41455078 C-82.26006188 13.22356058 -60.15236486 7.14432563 -37.5 3.125 C-36.35789062 2.91230469 -35.21578125 2.69960937 -34.0390625 2.48046875 C-22.72791692 0.45958284 -11.47404837 -0.04638241 0 0 Z " fill="#FCFCFC" transform="translate(346.5,3.875)"/>
<path d="M0 0 C1.21526367 0.00338379 2.43052734 0.00676758 3.68261719 0.01025391 C11.04361048 0.05193454 18.39584348 0.17405791 25.75 0.5 C26.91692383 0.54616455 26.91692383 0.54616455 28.10742188 0.59326172 C32.29632459 0.81523304 36.03230284 1.46838495 40.09448242 2.58447266 C43.20234104 3.28281823 46.30960343 3.62528294 49.47265625 4 C57.81703159 5.05947184 65.80846828 7.00396688 73.9375 9.125 C75.34289639 9.48516635 76.74849522 9.84454371 78.15429688 10.203125 C80.8069662 10.88081996 83.45810057 11.5637076 86.10864258 12.24975586 C88.74918079 12.931228 91.39153669 13.60037285 94.0390625 14.25390625 C111.6290868 18.68119228 129.0471267 24.44317065 145.5 32.125 C146.44617188 32.55296875 147.39234375 32.9809375 148.3671875 33.421875 C161.43257073 39.36358962 174.22866353 45.6627008 186.5 53.125 C187.21414063 53.55425781 187.92828125 53.98351563 188.6640625 54.42578125 C197.96647285 60.11470551 206.7170711 66.67707379 215.5 73.125 C216.0460791 73.52074219 216.5921582 73.91648437 217.15478516 74.32421875 C218.83690245 75.54338121 220.51266518 76.77085927 222.1875 78 C223.20199219 78.73992187 224.21648438 79.47984375 225.26171875 80.2421875 C226.00035156 80.86351563 226.73898437 81.48484375 227.5 82.125 C227.5 82.785 227.5 83.445 227.5 84.125 C228.37785156 84.52525391 228.37785156 84.52525391 229.2734375 84.93359375 C231.54730176 86.15031059 233.21165914 87.46549323 235.125 89.1875 C235.8159375 89.80496094 236.506875 90.42242187 237.21875 91.05859375 C237.9715625 91.74050781 238.724375 92.42242187 239.5 93.125 C241.20804552 94.66698554 242.91638575 96.20864468 244.625 97.75 C245.46675781 98.51054688 246.30851563 99.27109375 247.17578125 100.0546875 C249.02679824 101.70349255 250.89390629 103.30658663 252.8125 104.875 C256.54567292 108.00044709 259.81305697 111.27535994 262.875 115.0625 C264.67091487 117.27114064 266.53073739 119.0329991 268.75 120.8125 C272.73189123 124.12502159 275.80901778 128.00602662 279.02734375 132.046875 C282.16339818 135.95084165 285.41672545 139.74798088 288.69433594 143.53344727 C291.59479518 146.92283802 294.07634167 150.3942001 296.5 154.125 C297.59701184 155.44151338 297.59701184 155.44151338 300.3125 155.3125 C304.57214635 155.06193257 306.5391579 154.17107809 309.4375 151.015625 C310.118125 150.14421875 310.79875 149.2728125 311.5 148.375 C315.13354683 143.80453862 318.86131317 139.34776499 322.6875 134.9375 C325.98194277 131.13510805 329.17223585 127.32900182 332.125 123.25 C332.90875 122.21875 333.6925 121.1875 334.5 120.125 C335.16 120.125 335.82 120.125 336.5 120.125 C336.768125 119.526875 337.03625 118.92875 337.3125 118.3125 C338.49917406 116.12652146 339.59599113 114.71167406 341.5 113.125 C342.16 113.125 342.82 113.125 343.5 113.125 C343.76167969 112.54621094 344.02335938 111.96742187 344.29296875 111.37109375 C348.79212012 102.99888651 357.16348982 96.34843142 364.21875 90.1875 C365.81304244 88.74608492 367.35710786 87.24802541 368.859375 85.7109375 C371.82794097 82.8038507 374.96355123 80.28310807 378.25 77.75 C378.86689697 77.27103271 379.48379395 76.79206543 380.11938477 76.29858398 C381.34905757 75.34392096 382.57958528 74.39035791 383.81103516 73.43798828 C385.27224975 72.30205129 386.72128286 71.15047707 388.16796875 69.99609375 C391.36465161 67.44865112 394.47877488 65.03917349 398.0625 63.0625 C400.72524066 61.56168254 402.87233231 60.11644502 405.25 58.25 C409.13762971 55.25893606 413.24709045 52.97327379 417.59375 50.71484375 C419.84660503 49.48243515 421.97994546 48.20321146 424.140625 46.82421875 C446.61383658 32.66493378 471.93290715 22.19393782 497.5 15.125 C499.12010986 14.66697998 499.12010986 14.66697998 500.77294922 14.19970703 C515.14717814 10.1522618 529.42980444 6.27574021 544.28442383 4.44116211 C545.87478514 4.21421799 547.4580556 3.93530887 549.03393555 3.62329102 C558.38259118 1.80905972 567.57732629 1.77328966 577.0625 1.8125 C577.93016998 1.81365814 578.79783997 1.81481628 579.69180298 1.81600952 C613.17893177 1.90357107 649.93438102 3.52092117 681.62890625 15.1953125 C683.94271036 15.94454431 686.10737536 16.47570399 688.48046875 16.95703125 C694.90333601 18.34035654 701.05091456 20.53599039 707.25 22.6875 C708.20592041 23.01888474 708.20592041 23.01888474 709.18115234 23.35696411 C727.66943192 29.78948897 745.09335293 37.61535845 762.3046875 46.93701172 C764.15573804 47.93870344 766.01452247 48.92608422 767.875 49.91015625 C774.29603545 53.33045212 780.41494379 57.14106185 786.5 61.125 C787.24894531 61.60710937 787.99789063 62.08921875 788.76953125 62.5859375 C802.57398733 71.58992507 815.34389339 82.02759007 827.5 93.125 C829.2287478 94.66713635 830.95791059 96.20880762 832.6875 97.75 C836.76262476 101.41633481 840.66982049 105.20528383 844.5 109.125 C845.28375 109.90875 846.0675 110.6925 846.875 111.5 C849.25 113.875 851.625 116.25 854 118.625 C854.77988281 119.40359375 855.55976562 120.1821875 856.36328125 120.984375 C857.98098033 122.60503148 859.58703852 124.23731848 861.1875 125.875 C863.48963621 128.20012297 863.48963621 128.20012297 866.25 130.25 C871.05129782 134.1749684 874.68648761 139.27629598 878.5 144.125 C879.43392578 145.31222656 879.43392578 145.31222656 880.38671875 146.5234375 C881.53650936 147.996203 882.67986581 149.47401659 883.81640625 150.95703125 C884.94567291 152.41119134 886.09994284 153.84624997 887.27734375 155.26171875 C891.43077297 160.32399463 894.37772237 165.48864497 897.140625 171.42578125 C898.40207858 173.93056408 899.79921689 175.91002665 901.5 178.125 C904.89454388 183.87309431 907.88715849 189.77147541 910.51171875 195.90625 C911.54318459 198.22195197 912.69676017 200.44323365 913.875 202.6875 C916.44934531 207.75673553 918.419401 212.99207608 920.35693359 218.32836914 C921.49145145 221.45275833 922.66540544 224.50276191 924 227.55078125 C925.73210902 231.67807227 927.06609863 235.84890612 928.375 240.125 C928.89872803 241.81151238 929.42348078 243.49770685 929.94921875 245.18359375 C930.33859619 246.43245361 930.33859619 246.43245361 930.73583984 247.70654297 C932.23018547 252.43593205 933.82993667 257.1295666 935.41796875 261.828125 C936.3552071 264.68382598 937.19535648 267.5425814 938 270.4375 C938.95916275 273.77018414 940.21798584 276.49477009 941.9375 279.5 C944.50843724 284.43216057 945.65505344 289.40163485 946.75 294.8125 C946.99447876 295.99561768 946.99447876 295.99561768 947.24389648 297.20263672 C949.56648338 309.51321159 949.65674148 322.15244336 949.66796875 334.640625 C949.67120278 335.98940054 949.67456821 337.33817577 949.67805481 338.68695068 C949.68398289 341.49703784 949.68590165 344.30709456 949.68530273 347.1171875 C949.68522208 349.93431097 949.69207787 352.7512697 949.70581055 355.56835938 C950.02180787 421.49468085 950.02180787 421.49468085 935.76953125 448.390625 C931.6092002 456.28882523 928.81539154 463.94683382 926.453125 472.54931641 C926.22496094 473.37351074 925.99679687 474.19770508 925.76171875 475.046875 C925.56537842 475.78518555 925.36903809 476.52349609 925.16674805 477.28417969 C924.5 479.125 924.5 479.125 922.5 481.125 C921.90751924 482.98456832 921.37583366 484.86368258 920.875 486.75 C918.62487417 494.3716668 915.1966228 501.17693317 911.50537109 508.19067383 C910.44630073 510.22831697 909.42870629 512.28366499 908.4140625 514.34375 C906.70362865 517.7800835 904.76414407 520.96745722 902.6484375 524.16796875 C901.42496722 526.12923703 901.42496722 526.12923703 900.61328125 528.44921875 C899.21701751 531.80515089 897.30818518 534.73038348 895.3125 537.75 C894.49965274 538.99456493 893.6871567 540.23935932 892.875 541.484375 C892.4728125 542.09861328 892.070625 542.71285156 891.65625 543.34570312 C890.01078724 545.87782571 888.41424571 548.44006712 886.8125 551 C884.29721313 554.96596394 881.63424978 558.75413453 878.76171875 562.46875 C877.61336957 563.97618051 876.55116091 565.54825864 875.5 567.125 C874.84 567.125 874.18 567.125 873.5 567.125 C873.26410156 568.00800781 873.02820312 568.89101563 872.78515625 569.80078125 C871.35018028 573.51252759 869.69172037 575.46345514 866.9375 578.3125 C863.47369969 581.98502285 860.16002028 585.68764853 857 589.625 C853.77681069 593.60658679 850.48049465 597.49821611 847.0625 601.3125 C846.23878906 602.23417969 845.41507813 603.15585937 844.56640625 604.10546875 C842.5 606.125 842.5 606.125 840.5 606.125 C840.273125 606.7025 840.04625 607.28 839.8125 607.875 C838.15238361 610.72091381 836.10812043 612.12341921 833.5 614.125 C832.7884375 614.85203125 832.076875 615.5790625 831.34375 616.328125 C827.84486999 619.76933117 824.11499837 622.84010066 820.3125 625.9375 C819.55291992 626.55915039 818.79333984 627.18080078 818.01074219 627.82128906 C815.84336219 629.59274988 813.67259054 631.35993558 811.5 633.125 C810.54996094 633.89714844 809.59992188 634.66929687 808.62109375 635.46484375 C803.11083696 639.90391388 797.51009751 644.22409767 791.890625 648.5234375 C789.55839025 650.30858808 787.23688884 652.10663874 784.921875 653.9140625 C784.33833252 654.36797363 783.75479004 654.82188477 783.15356445 655.28955078 C782.03804234 656.1576552 780.92448242 657.02828903 779.81323242 657.90185547 C777.13833034 659.97765772 774.53825992 661.64965871 771.5 663.125 C770.36748593 664.29082331 769.23654861 665.45826094 768.1171875 666.63671875 C766.05353457 668.53587761 763.81742536 670.0468127 761.5 671.625 C757.75270117 674.18048041 754.66794901 676.8690524 751.5 680.125 C750.07709939 681.06457273 748.65360749 682.00327194 747.22607422 682.93579102 C743.97521064 685.17553027 740.97786017 687.73614754 737.9375 690.25 C731.96317775 695.14893053 725.91602325 699.91499707 719.7734375 704.6015625 C715.51396102 707.86672958 711.337292 711.23463567 707.15380859 714.59619141 C702.41472597 718.40179994 697.6415953 722.16116538 692.84887695 725.89892578 C689.66929675 728.38838188 686.52764446 730.91578716 683.41796875 733.4921875 C677.05796147 738.75497443 670.93723578 743.70861967 663.7109375 747.75390625 C660.44275759 749.78063973 657.76890527 752.33730177 654.953125 754.94140625 C651.70459106 757.83301528 648.26193199 760.43313075 644.79418945 763.05493164 C640.93470967 765.98689218 637.17464028 769.01874981 633.43896484 772.10668945 C627.4608869 777.04740752 621.56484948 781.66064628 614.83203125 785.5625 C612.01945524 787.44697304 609.87494398 789.71707069 607.5 792.125 C605.75741631 793.51533094 603.98454296 794.86831288 602.1875 796.1875 C601.13949219 796.96222656 600.09148438 797.73695313 599.01171875 798.53515625 C598.44759277 798.95039551 597.8834668 799.36563477 597.30224609 799.79345703 C594.02047847 802.21810626 590.76199358 804.67385147 587.5 807.125 C583.78575145 809.91418547 580.07067191 812.70175755 576.33984375 815.46875 C569.53344988 820.52545177 562.89862548 825.76838307 556.29296875 831.08203125 C551.5545642 834.89138431 546.77177139 838.64317217 541.984375 842.390625 C539.59028085 844.26532245 537.20623051 846.15194013 534.828125 848.046875 C529.32217103 852.42445735 523.82054234 856.66334702 517.90234375 860.4765625 C509.50398581 866.23933819 501.66989917 872.9407336 493.78125 879.37109375 C492.10391871 880.66068579 490.37016906 881.87771169 488.609375 883.05078125 C484.28779753 885.9336426 480.22173477 889.12565229 476.109375 892.296875 C473.5 894.125 473.5 894.125 471.5 894.125 C471.29375 894.69476562 471.0875 895.26453125 470.875 895.8515625 C469.01370984 898.92903657 466.42894736 900.53843376 463.5 902.5 C457.60631523 906.57508876 451.89473485 910.83653289 446.25 915.25 C445.477771 915.85328125 444.70554199 916.4565625 443.90991211 917.078125 C439.93773628 920.19067949 435.98847122 923.32926331 432.0625 926.5 C427.93620849 929.82219367 423.68558675 932.94207875 419.3828125 936.03125 C417.31666078 937.53186968 415.27301838 939.04690779 413.2421875 940.59375 C412.43080322 941.21068726 412.43080322 941.21068726 411.60302734 941.84008789 C410.07693238 943.00383408 408.55400487 944.17173047 407.03125 945.33984375 C404.5 947.125 404.5 947.125 401.5 948.125 C401.5 948.785 401.5 949.445 401.5 950.125 C399.77731422 951.51998465 397.99360204 952.8398448 396.1875 954.125 C391.91245106 957.22648129 387.93048569 960.45123903 384.0625 964.0625 C378.71261372 969.02915661 373.03135279 973.43044273 367.21337891 977.81884766 C364.23556078 980.0889142 361.30921976 982.42405005 358.375 984.75 C354.2367185 988.02568907 350.05520946 991.19390765 345.75 994.25 C341.09638534 997.56715684 336.97709296 1001.25598241 332.88671875 1005.2421875 C330.19512226 1007.36550911 327.7862677 1008.22400308 324.5 1009.125 C324.5 1009.785 324.5 1010.445 324.5 1011.125 C321.0144226 1014.03700137 317.24242918 1016.55557101 313.5 1019.125 C312.84902344 1019.59164062 312.19804688 1020.05828125 311.52734375 1020.5390625 C306.95848751 1023.54176235 302.77569492 1024.02837242 297.5 1023.125 C293.7103924 1021.8531454 290.33679705 1020.69770368 288.3984375 1017.0546875 C287.95371094 1016.09949219 287.95371094 1016.09949219 287.5 1015.125 C285.58333333 1013.95833333 285.58333333 1013.95833333 283.5 1013.125 C282.51 1012.465 281.52 1011.805 280.5 1011.125 C280.5 1010.465 280.5 1009.805 280.5 1009.125 C279.984375 1008.898125 279.46875 1008.67125 278.9375 1008.4375 C274.54856671 1006.07422823 270.66528541 1003.31374753 267.171875 999.75 C263.42479214 996.06865543 259.20872796 993.1704682 254.94921875 990.11328125 C254.14097656 989.45714844 253.33273437 988.80101562 252.5 988.125 C252.5 987.465 252.5 986.805 252.5 986.125 C251.92765625 985.85171875 251.3553125 985.5784375 250.765625 985.296875 C244.06329667 981.83015345 237.0991274 977.19015067 231.5 972.125 C231.5 971.465 231.5 970.805 231.5 970.125 C230.97921875 969.89554688 230.4584375 969.66609375 229.921875 969.4296875 C226.64563132 967.66474332 223.72800699 965.46695646 220.75 963.25 C220.09604248 962.7660376 219.44208496 962.2820752 218.76831055 961.78344727 C217.38198757 960.75610793 215.99684181 959.72717839 214.61279297 958.69677734 C212.53843629 957.15359404 210.45900027 955.61746842 208.37890625 954.08203125 C201.12083795 948.70385042 194.04998626 943.18446824 187.15234375 937.3515625 C184.15002347 934.83120527 181.07879679 932.42145615 177.97265625 930.03125 C174.82133783 927.60179757 171.69124544 925.14591924 168.5625 922.6875 C167.95986328 922.21425293 167.35722656 921.74100586 166.73632812 921.25341797 C162.45891443 917.89011029 158.20675244 914.49682698 153.9765625 911.07421875 C149.28598119 907.38242052 144.47861034 903.84463436 139.67578125 900.30078125 C133.29425374 895.58002012 127.00740181 890.81689608 121 885.625 C115.68790263 881.03524858 110.16908879 876.79702843 104.52929688 872.61865234 C99.96170703 869.23260153 95.45932414 865.77735379 91 862.25 C87.52752889 859.50376924 84.05651533 856.76224654 80.5 854.125 C76.99258769 851.52033938 73.55639866 848.82848271 70.125 846.125 C57.43616507 836.13249931 44.70556433 826.20658833 31.7578125 816.55078125 C31.19094727 816.12619629 30.62408203 815.70161133 30.04003906 815.26416016 C28.72762196 814.29337097 27.39324131 813.3523905 26.0546875 812.41796875 C25.54164063 811.99128906 25.02859375 811.56460938 24.5 811.125 C24.5 810.465 24.5 809.805 24.5 809.125 C23.63503906 808.898125 22.77007812 808.67125 21.87890625 808.4375 C18.04878357 806.9497298 15.43854297 804.83539408 12.4375 802.125 C11.29899767 801.12907862 10.15831022 800.13565053 9.015625 799.14453125 C8.43619141 798.64131348 7.85675781 798.1380957 7.25976562 797.61962891 C-1.22368114 790.41434851 -10.3670109 783.94797057 -19.2890625 777.30078125 C-31.47118048 768.21570527 -43.39159585 758.83076103 -55.24633789 749.32421875 C-59.16629208 746.18292422 -63.11343934 743.0813543 -67.08984375 740.01171875 C-69.01128809 738.50757351 -70.91716736 736.98888162 -72.81640625 735.45703125 C-79.34108892 730.19530231 -85.90632656 725.01270336 -92.625 720 C-93.2938623 719.50097168 -93.96272461 719.00194336 -94.65185547 718.48779297 C-95.97210126 717.50332851 -97.2924124 716.51895166 -98.61279297 715.53466797 C-105.7883506 710.17481418 -112.84613875 704.73516112 -119.625 698.875 C-126.45988469 692.97882106 -133.72144365 687.69078494 -141.01953125 682.38671875 C-142.13255615 681.57533447 -142.13255615 681.57533447 -143.26806641 680.74755859 C-144.79173314 679.63989188 -146.32029196 678.53893127 -147.85302734 677.44384766 C-148.58602051 676.91194824 -149.31901367 676.38004883 -150.07421875 675.83203125 C-150.73381592 675.35870361 -151.39341309 674.88537598 -152.07299805 674.39770508 C-152.77936401 673.76771606 -152.77936401 673.76771606 -153.5 673.125 C-153.5 672.465 -153.5 671.805 -153.5 671.125 C-154.3353125 671.0321875 -154.3353125 671.0321875 -155.1875 670.9375 C-157.5 670.125 -157.5 670.125 -159.79296875 667.80859375 C-162.43526772 665.18917183 -164.98723319 663.35407664 -168.125 661.375 C-173.33618307 657.98389925 -178.08191227 654.27387953 -182.84375 650.28515625 C-186.1487559 647.5974088 -189.60725269 645.19870427 -193.1171875 642.7890625 C-197.03283387 640.05452913 -200.75488967 637.08651801 -204.5 634.125 C-205.59590725 633.26765759 -206.69229556 632.41092988 -207.7890625 631.5546875 C-220.89543083 621.31347426 -233.75750153 610.94135066 -245.5 599.125 C-246.30179687 598.34640625 -247.10359375 597.5678125 -247.9296875 596.765625 C-252.57313315 592.22602638 -256.84165252 587.65729839 -260.73046875 582.45703125 C-262.70130567 579.85970312 -264.78105624 577.37398988 -266.875 574.875 C-270.28874225 570.7209281 -273.48719336 566.46909231 -276.5625 562.0625 C-276.95679199 561.50208008 -277.35108398 560.94166016 -277.75732422 560.36425781 C-280.5 556.37245473 -280.5 556.37245473 -280.5 554.125 C-281.49 553.795 -282.48 553.465 -283.5 553.125 C-284.89453125 551.36254883 -284.89453125 551.36254883 -286.3125 549.08203125 C-287.08980469 547.84163086 -287.08980469 547.84163086 -287.8828125 546.57617188 C-288.41648437 545.70541016 -288.95015625 544.83464844 -289.5 543.9375 C-290.03367187 543.08607422 -290.56734375 542.23464844 -291.1171875 541.35742188 C-293.80499057 537.03487292 -296.29001252 532.71497399 -298.5 528.125 C-299.79459194 525.65707553 -301.11794861 523.20465271 -302.4375 520.75 C-305.20645998 515.57863401 -307.91337335 510.39063283 -310.5 505.125 C-310.82484375 504.49722656 -311.1496875 503.86945313 -311.484375 503.22265625 C-313.74698491 498.82797162 -315.63369125 494.36772864 -317.43359375 489.765625 C-318.55237671 486.99530528 -319.75886339 484.28009576 -321 481.5625 C-321.4228125 480.63566406 -321.845625 479.70882813 -322.28125 478.75390625 C-323.01515939 477.17082606 -323.76141094 475.59326639 -324.53125 474.02734375 C-329.25253509 464.14691246 -332.27746745 452.99014391 -334.04296875 442.203125 C-334.46059637 440.02602058 -334.46059637 440.02602058 -335.48828125 437.69140625 C-336.53264918 435.0421795 -337.04509544 432.61909866 -337.5 429.8125 C-338.05111982 426.57897666 -338.63984667 423.41509546 -339.5 420.25 C-340.71498484 415.65583859 -341.29974404 410.97688769 -341.9375 406.2734375 C-342.4254574 403.09984975 -342.4254574 403.09984975 -343.52734375 400.05859375 C-344.46974254 397.21625846 -344.85034125 394.78723645 -345.0625 391.8125 C-345.06002019 388.66326567 -345.06002019 388.66326567 -346.5 386.125 C-346.59905152 384.28927369 -346.62799207 382.44972425 -346.62939453 380.61132812 C-346.63254669 379.43340698 -346.63569885 378.25548584 -346.63894653 377.04187012 C-346.6369223 375.75961548 -346.63489807 374.47736084 -346.6328125 373.15625 C-346.63376923 371.85046997 -346.63472595 370.54468994 -346.63571167 369.19934082 C-346.63718833 366.43187278 -346.63503511 363.66443696 -346.63037109 360.89697266 C-346.62467381 357.34237351 -346.62795298 353.78784986 -346.63394356 350.23325348 C-346.63841747 346.85341286 -346.63528886 343.47359277 -346.6328125 340.09375 C-346.63483673 338.81149536 -346.63686096 337.52924072 -346.63894653 336.20812988 C-346.63579437 335.03020874 -346.63264221 333.8522876 -346.62939453 332.63867188 C-346.62859894 331.59578003 -346.62780334 330.55288818 -346.62698364 329.47839355 C-346.5 327.125 -346.5 327.125 -345.5 326.125 C-345.05073333 322.60637361 -344.68019835 319.08882825 -344.33789062 315.55859375 C-343.8917446 311.35829218 -343.09718322 308.05219169 -341.5 304.125 C-341.10462236 301.4699293 -340.76742969 298.85436831 -340.5 296.1875 C-340.00229137 291.25188941 -339.11777948 286.82607685 -337.5 282.125 C-337.14519013 280.00665366 -336.83335281 277.8807088 -336.5625 275.75 C-335.79145932 270.46627937 -334.57246087 266.01215191 -332.5 261.125 C-330.25427004 255.29415854 -328.26243102 249.40931536 -326.43530273 243.43603516 C-320.33340747 223.55855853 -311.61845031 205.25497395 -301.5 187.125 C-301.13745117 186.46483887 -300.77490234 185.80467773 -300.40136719 185.12451172 C-293.88134138 173.28740744 -287.1130534 161.57108785 -278.5 151.125 C-277.59883743 149.8997351 -276.70311107 148.67045579 -275.8125 147.4375 C-272.4606957 142.93855412 -268.77840039 138.73238255 -265.11254883 134.48974609 C-259.70916966 128.23160933 -254.36483816 121.91143132 -249.375 115.31640625 C-248.75625 114.59324219 -248.1375 113.87007813 -247.5 113.125 C-246.84 113.125 -246.18 113.125 -245.5 113.125 C-245.273125 112.57328125 -245.04625 112.0215625 -244.8125 111.453125 C-243.11274074 108.43807583 -240.95195184 106.31269631 -238.5 103.875 C-237.613125 102.98296875 -236.72625 102.0909375 -235.8125 101.171875 C-233.5 99.125 -233.5 99.125 -231.5 99.125 C-231.273125 98.5475 -231.04625 97.97 -230.8125 97.375 C-229.1591307 94.54065264 -227.07036056 93.15737811 -224.5 91.125 C-223.7575 90.196875 -223.015 89.26875 -222.25 88.3125 C-218.90381962 84.18861409 -214.73961229 81.27857462 -210.5 78.125 C-209.23601911 77.15880675 -207.97307724 76.19125336 -206.7109375 75.22265625 C-200.38504447 70.38982177 -194.13189451 65.61915025 -187.18408203 61.70239258 C-184.11437936 59.89837685 -181.1636903 57.94866829 -178.19140625 55.98828125 C-171.19799948 51.44390596 -163.97827489 47.44002108 -156.59594727 43.56738281 C-154.56315443 42.50034352 -152.53619442 41.42281784 -150.50976562 40.34375 C-136.15824603 32.73519963 -121.89182384 26.230402 -106.4375 21.1875 C-105.2777063 20.80489014 -105.2777063 20.80489014 -104.09448242 20.41455078 C-82.26006188 13.22356058 -60.15236486 7.14432563 -37.5 3.125 C-36.35789062 2.91230469 -35.21578125 2.69960937 -34.0390625 2.48046875 C-22.72791692 0.45958284 -11.47404837 -0.04638241 0 0 Z M549.5 64.125 C548.74847656 64.21620117 547.99695313 64.30740234 547.22265625 64.40136719 C491.65256904 71.35983593 437.05539558 101.39732007 396.5 139.125 C395.1290837 140.31721213 393.75423376 141.50491999 392.375 142.6875 C388.91536745 145.69557409 385.70444006 148.89947052 382.4921875 152.16796875 C380.60253722 154.02427226 378.65113009 155.73278412 376.625 157.4375 C362.4085325 169.80444648 349.37634077 186.94458297 341.5 204.125 C341.5 205.445 341.5 206.765 341.5 208.125 C340.51 208.455 339.52 208.785 338.5 209.125 C336.54457812 212.10959129 336.5 213.38914791 336.5 217.125 C335.51 217.455 334.52 217.785 333.5 218.125 C331.87748701 220.66577852 331.87748701 220.66577852 330.3828125 223.87890625 C330.08911774 224.47902527 329.79542297 225.07914429 329.49282837 225.69744873 C328.52460723 227.68846191 327.57379839 229.68716502 326.625 231.6875 C326.29729614 232.37073334 325.96959229 233.05396667 325.63195801 233.75790405 C320.48376042 244.50611744 315.7301194 255.39512417 311.25 266.4375 C310.97818909 267.10532501 310.70637817 267.77315002 310.42633057 268.46121216 C307.40803646 275.9105626 304.60976689 283.36083099 302.5 291.125 C299.35427274 289.55213637 298.97812768 286.89109005 297.6640625 283.6875 C297.09483348 282.31587359 296.52549273 280.94429355 295.95605469 279.57275391 C295.65775757 278.84743469 295.35946045 278.12211548 295.05212402 277.37481689 C288.72591444 262.02324274 281.95412235 246.96718548 274.5 232.125 C274.0673584 231.26245605 273.6347168 230.39991211 273.18896484 229.51123047 C259.35997323 202.14544646 242.29135463 176.69307038 221.5 154.125 C220.85289062 153.38636719 220.20578125 152.64773437 219.5390625 151.88671875 C208.3109811 139.08842673 196.41161416 126.99060685 182.5 117.125 C181.56027344 116.43664062 180.62054687 115.74828125 179.65234375 115.0390625 C173.60380273 110.67413599 169.18099218 107.76774455 161.5 108.125 C161.5 106.475 161.5 104.825 161.5 103.125 C147.83077871 95.6284609 133.9256989 89.03843339 119.5 83.125 C118.68031738 82.78839355 117.86063477 82.45178711 117.01611328 82.10498047 C99.48674776 75.01694065 81.22400502 70.89535614 62.6875 67.375 C61.65238281 67.17632324 60.61726563 66.97764648 59.55078125 66.77294922 C42.73602486 63.71452953 26.09300225 62.77422618 9.02270508 62.80932617 C5.83314553 62.81247959 2.64452367 62.78894015 -0.54492188 62.76367188 C-47.64023264 62.62155952 -93.05853881 76.18913222 -134.5 98.125 C-135.47114746 98.63450195 -135.47114746 98.63450195 -136.46191406 99.15429688 C-156.58995898 109.79807838 -174.68097329 123.8379389 -191.5 139.125 C-192.86898437 140.35669922 -192.86898437 140.35669922 -194.265625 141.61328125 C-208.08803479 154.14127019 -221.54898598 166.96274237 -232.5 182.125 C-232.90154297 182.67639648 -233.30308594 183.22779297 -233.71679688 183.79589844 C-243.89979033 196.44698936 -243.89979033 196.44698936 -248.5 211.125 C-249.16 211.125 -249.82 211.125 -250.5 211.125 C-250.83 212.775 -251.16 214.425 -251.5 216.125 C-252.49 216.455 -253.48 216.785 -254.5 217.125 C-255.84800366 219.24669461 -255.84800366 219.24669461 -256.98828125 221.91015625 C-257.67253174 223.40663696 -257.67253174 223.40663696 -258.37060547 224.93334961 C-258.84643066 226.00721924 -259.32225586 227.08108887 -259.8125 228.1875 C-260.30379395 229.2813501 -260.79508789 230.3752002 -261.30126953 231.50219727 C-269.72073674 250.42859137 -275.56307365 269.58636903 -280.1875 289.75 C-280.48519287 291.03592041 -280.78288574 292.32184082 -281.08959961 293.64672852 C-285.56929541 313.60497561 -286.75255506 333.61036871 -286.8125 354 C-286.81511841 354.86240295 -286.81773682 355.72480591 -286.82043457 356.61334229 C-286.82794764 379.97202247 -284.70193316 403.53328259 -278.5 426.125 C-278.25910645 427.01880371 -278.01821289 427.91260742 -277.77001953 428.83349609 C-268.08552809 464.3986493 -254.05928769 498.67473536 -231.5 528.125 C-230.84773438 528.97707031 -230.19546875 529.82914063 -229.5234375 530.70703125 C-227.55459937 533.21466664 -225.54067196 535.67545695 -223.5 538.125 C-222.87883301 538.87354248 -222.87883301 538.87354248 -222.24511719 539.63720703 C-206.32730424 558.74666267 -189.23008028 576.53258577 -169.43945312 591.64013672 C-165.77522911 594.44550057 -162.14081967 597.28937634 -158.5 600.125 C-156.95836298 601.32295482 -155.41669669 602.52087198 -153.875 603.71875 C-150.07368623 606.67532738 -146.28366608 609.64588755 -142.5 612.625 C-135.7427394 617.94423231 -128.95553346 623.22454669 -122.1640625 628.5 C-119.0309482 630.93379371 -115.90095116 633.37151373 -112.7734375 635.8125 C-103.19111389 643.2897467 -103.19111389 643.2897467 -93.5 650.625 C-86.20066179 656.06431401 -79.04000264 661.68066867 -71.86425781 667.28125 C-68.75717802 669.70428455 -65.64539221 672.12123481 -62.53369141 674.53833008 C-56.50995565 679.21809144 -50.493796 683.90694294 -44.5 688.625 C-31.37534253 698.95517757 -18.16944005 709.18082303 -4.91308594 719.34130859 C1.72871726 724.43255118 8.34082853 729.55819486 14.91552734 734.73583984 C25.91856871 743.39639558 36.98669881 751.97337485 48.09375 760.5 C53.02854536 764.29599643 57.93545131 768.12798039 62.84765625 771.953125 C67.22144077 775.35742429 71.60358707 778.74997594 76 782.125 C81.96989171 786.70794717 87.90954493 791.32910487 93.84765625 795.953125 C99.25259414 800.16001405 104.6762364 804.34130709 110.109375 808.51171875 C114.94410625 812.23063117 119.74892333 815.98813531 124.55981445 819.73779297 C129.74499762 823.77392775 134.95848116 827.77089094 140.1875 831.75 C145.53940836 835.824015 150.8283981 839.96329457 156.0625 844.1875 C161.07221558 848.22857366 166.14969593 852.15645228 171.3125 856 C183.48675066 865.06361634 195.41963351 874.42901849 207.24511719 883.94189453 C211.82746623 887.61637335 216.49981505 891.15329463 221.21484375 894.65625 C233.74679267 904.01888435 245.96245063 913.82090496 258.24853516 923.50292969 C260.01941632 924.89834694 261.79080561 926.29311542 263.5625 927.6875 C264.1414502 928.14334473 264.72040039 928.59918945 265.31689453 929.06884766 C268.14714535 931.29289953 270.98614309 933.50377995 273.84765625 935.6875 C274.39147949 936.10257813 274.93530273 936.51765625 275.49560547 936.9453125 C276.57316151 937.76679963 277.65159877 938.58713227 278.73095703 939.40625 C281.48084219 941.50974781 284.15722472 943.66470746 286.76953125 945.9375 C287.30175293 946.39761475 287.83397461 946.85772949 288.38232422 947.33178711 C289.84612127 948.60784128 291.29658425 949.89914534 292.74609375 951.19140625 C295.89738069 953.40401198 297.65220567 954.1151212 301.5 954.125 C304.68390575 952.80374602 304.68390575 952.80374602 307.75 950.6875 C308.32081299 950.3177002 308.89162598 949.94790039 309.47973633 949.56689453 C313.71772749 946.77322785 317.69744534 943.73248463 321.60546875 940.5 C325.34904234 937.42834987 329.17264322 934.46618119 333 931.5 C334.56644971 930.28391014 336.13285529 929.06776345 337.69921875 927.8515625 C338.49118652 927.23700195 339.2831543 926.62244141 340.09912109 925.98925781 C342.46990003 924.14837232 344.83882235 922.30512771 347.20703125 920.4609375 C354.82351308 914.53004416 362.45184902 908.61610584 370.109375 902.73828125 C374.17038108 899.61452417 378.20877488 896.46177391 382.25 893.3125 C388.14431848 888.72029909 394.05851201 884.15599853 400 879.625 C408.11864315 873.43228831 416.1812417 867.16929983 424.23388672 860.89111328 C427.98696234 857.96612416 431.74365366 855.04578673 435.5 852.125 C437.00001753 850.95835587 438.50001753 849.7916892 440 848.625 C443 846.29166667 446 843.95833333 449 841.625 C449.74266113 841.04733887 450.48532227 840.46967773 451.25048828 839.87451172 C452.74872044 838.70929231 454.24709258 837.54425288 455.74560547 836.37939453 C459.52382887 833.44205371 463.29947676 830.50150792 467.0703125 827.5546875 C474.20376685 821.98515867 481.35929639 816.45868149 488.625 811.0625 C494.81804311 806.46035149 500.82145437 801.66041478 506.78613281 796.76708984 C511.51908027 792.8935154 516.35008609 789.18703084 521.265625 785.546875 C525.26556071 782.57100394 529.19293558 779.50214799 533.125 776.4375 C533.8890918 775.84219482 534.65318359 775.24688965 535.44042969 774.63354492 C538.56463008 772.19785469 541.6872622 769.76016628 544.80859375 767.32080078 C552.69339422 761.15953683 560.59141826 755.0289786 568.625 749.0625 C574.81804311 744.46035149 580.82145437 739.66041478 586.78613281 734.76708984 C591.51908027 730.8935154 596.35008609 727.18703084 601.265625 723.546875 C605.26556071 720.57100394 609.19293558 717.50214799 613.125 714.4375 C613.8890918 713.84219482 614.65318359 713.24688965 615.44042969 712.63354492 C618.56463008 710.19785469 621.6872622 707.76016628 624.80859375 705.32080078 C632.69339422 699.15953683 640.59141826 693.0289786 648.625 687.0625 C654.81508135 682.46255242 660.81638906 677.66577054 666.77734375 672.77368164 C671.60106719 668.82467432 676.52102772 665.05818377 681.53125 661.34765625 C684.76787365 658.92444723 687.95123788 656.44206018 691.125 653.9375 C702.72300621 644.78631681 714.39581564 635.7319772 726.11328125 626.734375 C732.48141509 621.83551656 738.81273824 616.88893201 745.15185547 611.95263672 C748.25477946 609.53753077 751.36001648 607.12540859 754.46533203 604.71337891 C756.72705805 602.95533284 758.98670345 601.19464013 761.24609375 599.43359375 C763.91743001 597.35215005 766.59647463 595.28163342 769.28515625 593.22265625 C776.39584181 587.75043562 783.08020359 581.98217005 789.61328125 575.83203125 C791.89488928 573.69244483 794.19634103 571.6066662 796.5625 569.5625 C805.43669761 561.84906241 813.80850031 554.04116566 821.5 545.125 C822.66612698 543.79119463 823.83276614 542.45783683 825 541.125 C825.55945312 540.47789062 826.11890625 539.83078125 826.6953125 539.1640625 C827.97544082 537.71768375 829.28621416 536.29816961 830.6171875 534.8984375 C840.1105793 524.81376178 846.5688313 513.93185208 851.76196289 501.16601562 C852.06352295 500.43833984 852.36508301 499.71066406 852.67578125 498.9609375 C853.06117065 497.99486572 853.06117065 497.99486572 853.4543457 497.00927734 C854.5 495.125 854.5 495.125 856.46557617 493.17675781 C859.99357243 489.61870182 861.53117332 485.05023279 863.5 480.5 C863.96986328 479.42274658 864.43972656 478.34549316 864.92382812 477.2355957 C868.98258986 467.72437688 872.55407587 458.05950444 876 448.3125 C876.25507324 447.59447205 876.51014648 446.87644409 876.77294922 446.13665771 C881.62589459 432.41373752 884.88837331 418.78984492 887.23486328 404.44311523 C887.62511171 402.06181837 888.02491026 399.68226349 888.42578125 397.30273438 C890.82151106 382.94230376 891.73820664 368.98824767 891.75 354.4375 C891.75151062 353.14267197 891.75151062 353.14267197 891.75305176 351.82168579 C891.7369842 331.40525392 889.47040899 311.92948092 884.5 292.125 C884.17708984 290.79734619 884.17708984 290.79734619 883.84765625 289.44287109 C878.72739456 268.43027173 871.91568553 248.60510383 862.5 229.125 C861.8488623 227.77365967 861.8488623 227.77365967 861.18457031 226.39501953 C850.99413989 205.49989573 838.40438749 185.9754075 823.5 168.125 C823.05350098 167.58375488 822.60700195 167.04250977 822.14697266 166.48486328 C807.49047611 148.73185063 791.97693246 133.3126515 773.44921875 119.57763672 C771.69179597 118.26793412 769.95246516 116.93847524 768.21875 115.59765625 C761.91084897 110.80607758 757.5749757 108.125 749.5 108.125 C749.5 106.475 749.5 104.825 749.5 103.125 C727.64413939 91.13870538 705.20968528 81.80351012 681.5 74.125 C680.6116748 73.83109375 679.72334961 73.5371875 678.80810547 73.234375 C667.6312052 69.57702928 656.3382268 67.21179011 644.75 65.3125 C643.49550049 65.1052832 642.24100098 64.89806641 640.94848633 64.68457031 C624.97645357 62.21500107 609.00703623 61.91846594 592.875 61.9375 C592.00147888 61.93777191 591.12795776 61.93804382 590.22796631 61.93832397 C576.5658637 61.95781587 563.06316626 62.35369097 549.5 64.125 Z " fill="#646FEE" transform="translate(346.5,3.875)"/>
<path d="M0 0 C4.41790076 1.48913297 5.95761214 2.923477 8.12567139 7.13937378 C14.13248259 19.92224541 18.46225448 33.51704334 23.19161129 46.806283 C34.57174196 78.78273091 46.358333 110.5956295 58.35471344 142.34531403 C61.28047043 150.0886927 64.19467085 157.83635327 67.10364723 165.58605003 C68.71399922 169.87497702 70.32675181 174.16300186 71.93936157 178.45108032 C72.80203649 180.74587554 73.66401404 183.04093306 74.52523804 185.33627319 C75.70691711 188.48428869 76.89205769 191.63097944 78.078125 194.77734375 C78.58896385 196.14152435 78.58896385 196.14152435 79.11012268 197.53326416 C79.59556801 198.81798615 79.59556801 198.81798615 80.09082031 200.12866211 C80.55615173 201.36215897 80.55615173 201.36215897 81.03088379 202.62057495 C81.98810315 204.97079024 83.10247405 207.18696602 84.24511719 209.45141602 C86 214 86 214 86 225 C130.88 225 175.76 225 222 225 C222 240.84 222 256.68 222 273 C165.9 273 109.8 273 52 273 C48.70697831 265.75535228 45.66030876 258.69464136 42.98828125 251.23828125 C42.62207672 250.22885468 42.25587219 249.2194281 41.87857056 248.17941284 C41.09348416 246.01466757 40.31026715 243.84924355 39.52877808 241.68319702 C37.44287437 235.90248819 35.34300751 230.1268643 33.2421875 224.3515625 C32.81201828 223.16848007 32.38184906 221.98539764 31.93864441 220.76646423 C26.61311351 206.14947867 21.12087862 191.59504557 15.61254883 177.04614258 C15.24914398 176.08322296 14.88573914 175.12030334 14.51132202 174.12820435 C13.83856897 172.34568636 13.16356372 170.56401589 12.48574829 168.78341675 C7.65933369 155.98365944 7.65933369 155.98365944 8 149 C5.99867535 149.46580174 5.99867535 149.46580174 4 151 C2.98885738 153.56256742 2.23822997 155.91176231 1.5625 158.5625 C1.1357575 160.11858309 0.70866469 161.67457015 0.28125 163.23046875 C0.06855469 164.02630371 -0.14414062 164.82213867 -0.36328125 165.64208984 C-1.33372031 169.23584002 -2.38240933 172.80534661 -3.4375 176.375 C-3.64616699 177.08366211 -3.85483398 177.79232422 -4.06982422 178.52246094 C-8.00194309 191.82518144 -12.31612057 204.99685275 -16.71494293 218.15152359 C-22.8573104 236.52490882 -28.94110917 254.91732976 -34.99238205 273.32089615 C-35.50461487 274.87872305 -36.01693879 276.43652 -36.52934647 277.9942894 C-43.89387861 300.38347468 -51.18125095 322.79445581 -58.32836914 345.25415039 C-63.03871313 360.04882669 -67.8468075 374.80999709 -72.6875 389.5625 C-79.32795381 409.80060353 -85.8437828 430.07516799 -92.22528076 450.3964386 C-93.44609481 454.27734376 -94.7019106 458.14425187 -96 462 C-102.93548552 458.53225724 -105.47340499 452.40280071 -108.25 445.48828125 C-108.69163734 444.41309738 -108.69163734 444.41309738 -109.14219666 443.31619263 C-109.77229609 441.78143902 -110.39970168 440.24557712 -111.02462769 438.70870972 C-112.68913857 434.61948442 -114.37814289 430.54040141 -116.06640625 426.4609375 C-116.57259239 425.23651192 -116.57259239 425.23651192 -117.08900452 423.98735046 C-124.51612012 406.06425797 -132.68612824 388.46359021 -140.77322388 370.831604 C-146.56057855 358.21142817 -152.23140737 345.54269651 -157.85180664 332.84741211 C-162.5349507 322.27309034 -167.27232438 311.72421326 -172.03201294 301.18414307 C-179.44596663 284.76390884 -186.73249602 268.29529002 -193.82641602 251.73413086 C-194.54022684 250.07114617 -195.25832179 248.40998047 -195.98413086 246.75219727 C-197.4039642 243.5040275 -198.46699918 240.51780543 -199 237 C-201.70605917 238.09705102 -203.55433906 239.11257036 -204.89453125 241.78125 C-207.01407697 248.03787694 -208.40552662 254.62210646 -210 261 C-268.08 261 -326.16 261 -386 261 C-386 245.16 -386 229.32 -386 213 C-367.28993758 212.24071441 -348.59986831 211.77249764 -329.87687302 211.52747726 C-323.4881433 211.44244185 -317.09954829 211.34737208 -310.7109375 211.25390625 C-310.00486547 211.24366991 -309.29879345 211.23343357 -308.5713253 211.22288704 C-294.3588891 211.0162381 -280.14815473 210.74333319 -265.9375 210.4375 C-264.90219147 210.41526367 -263.86688293 210.39302734 -262.80020142 210.37011719 C-257.20007535 210.24932209 -251.60001145 210.12599317 -246 210 C-245.72410034 208.86377197 -245.72410034 208.86377197 -245.44262695 207.70458984 C-243.86386412 201.2839861 -242.18232317 194.92888431 -240.1875 188.625 C-239.92888184 187.80394775 -239.67026367 186.98289551 -239.40380859 186.13696289 C-237.88770615 181.43484141 -236.17696938 176.93841376 -234.125 172.4375 C-230.656714 164.7271634 -228.34285069 156.69493049 -225.97900391 148.58764648 C-224.0814567 142.16626496 -221.84734578 136.06487104 -219.20239258 129.91503906 C-216.94700948 124.44716613 -215.25933476 118.78768703 -213.5078125 113.14257812 C-213.22421875 112.25892578 -212.940625 111.37527344 -212.6484375 110.46484375 C-212.40270996 109.677146 -212.15698242 108.88944824 -211.90380859 108.07788086 C-210.87843964 105.72052938 -210.1378648 104.448753 -208 103 C-205.47851562 103.03051758 -205.47851562 103.03051758 -203 104 C-201.53710938 105.93237305 -201.53710938 105.93237305 -200.34375 108.51171875 C-199.88589111 109.48069092 -199.42803223 110.44966309 -198.95629883 111.44799805 C-198.47572021 112.51703369 -197.9951416 113.58606934 -197.5 114.6875 C-196.98010498 115.80745361 -196.46020996 116.92740723 -195.92456055 118.08129883 C-191.5300134 127.62594223 -187.3496469 137.26725716 -183.20898438 146.92431641 C-178.73810303 157.34851438 -174.14160088 167.71326676 -169.5 178.0625 C-168.95394104 179.28037704 -168.95394104 179.28037704 -168.39685059 180.52285767 C-166.59774328 184.5345438 -164.797239 188.54560013 -162.99560547 192.55615234 C-161.21425582 196.52183295 -159.43646705 200.48909102 -157.66015625 204.45703125 C-153.00497762 214.85408176 -148.34193491 225.24733593 -143.65234375 235.62890625 C-142.10097183 239.06483783 -140.55021449 242.50104606 -139 245.9375 C-138.61424805 246.79261169 -138.22849609 247.64772339 -137.83105469 248.52874756 C-132.27900794 260.84516611 -126.83930451 273.20407574 -121.5090332 285.61791992 C-117.57386438 294.75691089 -113.47148464 303.81083277 -109.24829102 312.8203125 C-108.81959717 313.74070312 -108.39090332 314.66109375 -107.94921875 315.609375 C-107.38207153 316.8154541 -107.38207153 316.8154541 -106.8034668 318.04589844 C-106 320 -106 320 -106 322 C-105.34 322 -104.68 322 -104 322 C-101.28233723 313.91238502 -98.6512178 305.79688184 -96.0173645 297.68170166 C-94.57755778 293.2458495 -93.13630155 288.81046819 -91.6953125 284.375 C-91.39494583 283.45034943 -91.09457916 282.52569885 -90.78511047 281.57302856 C-87.67882868 272.01066929 -84.57159369 262.44862119 -81.46109009 252.88763428 C-80.87195596 251.07639448 -80.28305997 249.26507721 -79.69442749 247.45367432 C-78.86071599 244.88818199 -78.02621171 242.32294904 -77.19140625 239.7578125 C-76.92299423 238.93201691 -76.65458221 238.10622131 -76.3780365 237.25540161 C-75.09687976 233.32362024 -73.80140879 229.39788158 -72.46826172 225.48339844 C-69.81687638 217.68524728 -67.35087298 209.87464892 -65.1328125 201.94140625 C-61.73800507 189.82205506 -57.81794176 177.88765503 -53.875 165.9375 C-53.11652551 163.62915281 -52.35830962 161.32072064 -51.6003418 159.01220703 C-47.36492246 146.124143 -43.10338524 133.24470322 -38.8125 120.375 C-38.45869766 119.31335129 -38.45869766 119.31335129 -38.0977478 118.23025513 C-35.5953946 110.72490166 -33.07895065 103.22461312 -30.53361511 95.73371887 C-22.8690853 73.16031381 -15.70761208 50.48034053 -8.97338867 27.61083984 C-8.51921318 26.07342888 -8.51921318 26.07342888 -8.05586243 24.50495911 C-7.49483105 22.60333816 -6.93683522 20.70081738 -6.38273621 18.79716492 C-4.50658748 12.43290886 -2.32888593 6.21230252 0 0 Z " fill="#6570EE" transform="translate(730,285)"/>
<path d="M0 0 C1.21526367 0.00338379 2.43052734 0.00676758 3.68261719 0.01025391 C11.04361048 0.05193454 18.39584348 0.17405791 25.75 0.5 C26.91692383 0.54616455 26.91692383 0.54616455 28.10742188 0.59326172 C32.29632459 0.81523304 36.03230284 1.46838495 40.09448242 2.58447266 C43.20234104 3.28281823 46.30960343 3.62528294 49.47265625 4 C57.81703159 5.05947184 65.80846828 7.00396688 73.9375 9.125 C75.34289639 9.48516635 76.74849522 9.84454371 78.15429688 10.203125 C80.8069662 10.88081996 83.45810057 11.5637076 86.10864258 12.24975586 C88.74918079 12.931228 91.39153669 13.60037285 94.0390625 14.25390625 C111.6290868 18.68119228 129.0471267 24.44317065 145.5 32.125 C146.44617188 32.55296875 147.39234375 32.9809375 148.3671875 33.421875 C161.43257073 39.36358962 174.22866353 45.6627008 186.5 53.125 C187.21414063 53.55425781 187.92828125 53.98351563 188.6640625 54.42578125 C197.96647285 60.11470551 206.7170711 66.67707379 215.5 73.125 C216.0460791 73.52074219 216.5921582 73.91648437 217.15478516 74.32421875 C218.83690245 75.54338121 220.51266518 76.77085927 222.1875 78 C223.20199219 78.73992187 224.21648438 79.47984375 225.26171875 80.2421875 C226.00035156 80.86351563 226.73898437 81.48484375 227.5 82.125 C227.5 82.785 227.5 83.445 227.5 84.125 C224.61045614 82.77234508 222.15436989 81.22419966 219.62109375 79.2890625 C218.87448486 78.72533936 218.12787598 78.16161621 217.35864258 77.58081055 C216.55966553 76.97664307 215.76068848 76.37247559 214.9375 75.75 C180.76572181 50.26835926 141.23117961 30.67312729 99.98876953 19.78613281 C97.83646948 19.21438193 95.69673459 18.61429401 93.55859375 17.9921875 C73.59973034 12.32788437 53.11756062 9.14632947 32.5 7.125 C31.41501221 7.01696045 31.41501221 7.01696045 30.30810547 6.90673828 C3.66743068 4.37496757 -24.2973387 5.7300592 -50.5 11.125 C-51.66015625 11.35848145 -52.8203125 11.59196289 -54.015625 11.83251953 C-71.17306439 15.30258638 -87.96703839 19.29293122 -104.5 25.125 C-105.30646973 25.40311523 -106.11293945 25.68123047 -106.94384766 25.96777344 C-141.55512952 37.94027336 -174.30480594 56.04094929 -203.5 78.125 C-204.35980469 78.77339844 -205.21960938 79.42179687 -206.10546875 80.08984375 C-222.60108303 92.91393816 -238.72565108 108.24880274 -251.58203125 124.7109375 C-253.5364237 127.1708449 -255.60906671 129.45147557 -257.75 131.75 C-269.26191332 144.39290831 -279.59802929 158.64179548 -287.921875 173.55859375 C-289.5 176.125 -289.5 176.125 -291.03515625 177.640625 C-293.03394409 179.66606334 -293.97403125 181.868006 -295.1875 184.4375 C-297.34351847 188.88164592 -299.65498022 193.13510521 -302.1875 197.375 C-305.98193767 203.84317514 -309.17129545 210.56966324 -312.3125 217.375 C-313.01475708 218.88368652 -313.01475708 218.88368652 -313.73120117 220.42285156 C-316.523346 226.55719324 -318.7076035 232.63395908 -320.5 239.125 C-321.2448633 241.54325483 -321.99464784 243.96000085 -322.75 246.375 C-322.95689453 247.04136475 -323.16378906 247.70772949 -323.37695312 248.39428711 C-324.61227451 252.35640939 -325.88694122 256.30224396 -327.203125 260.23828125 C-337.00968793 289.78940373 -341.05005598 319.15393193 -340.83618164 350.26538086 C-340.81240306 353.95253182 -340.81567827 357.63896242 -340.82226562 361.32617188 C-340.80137636 380.26174022 -339.55164053 398.59928021 -335.875 417.1875 C-335.68624802 418.15574707 -335.68624802 418.15574707 -335.49368286 419.14355469 C-332.94182689 432.13439001 -329.41243079 444.76855311 -325.37695312 457.37841797 C-324.65037805 459.65402198 -323.94956992 461.93402614 -323.265625 464.22265625 C-312.82534478 497.77529595 -295.71286216 531.11847611 -274.5 559.125 C-273.89575195 559.93324219 -273.89575195 559.93324219 -273.27929688 560.7578125 C-258.88346912 580.01308766 -242.85643247 598.55278833 -224.5 614.125 C-223.61441406 614.89972656 -222.72882813 615.67445313 -221.81640625 616.47265625 C-214.45488158 622.86847812 -206.76855651 628.75575826 -198.94311523 634.57177734 C-194.01416049 638.23530924 -189.12538999 641.93523976 -184.3125 645.75 C-179.24907739 649.76311513 -174.13945723 653.70968678 -169 657.625 C-163.2542693 662.00486863 -157.54288176 666.42332703 -151.87011719 670.8972168 C-144.88092869 676.40807524 -137.84767483 681.86212275 -130.81884766 687.32226562 C-128.52751573 689.10360853 -126.23806227 690.88733623 -123.94921875 692.671875 C-115.96083023 698.89801742 -107.94802746 705.08932735 -99.89428711 711.23071289 C-93.97904254 715.74625545 -88.10483532 720.31315844 -82.23706055 724.89013672 C-77.12056699 728.8768279 -71.97432843 732.82225306 -66.8125 736.75 C-60.83046734 741.30365154 -54.94006323 745.95592231 -49.09082031 750.6784668 C-44.65510829 754.24308746 -40.133165 757.67322394 -35.5625 761.0625 C-30.09395179 765.11895373 -24.75981445 769.3014775 -19.5 773.625 C-13.6576056 778.42474514 -7.70592281 783.03161576 -1.63623047 787.53955078 C5.73932079 793.02421053 12.97592298 798.68343576 20.21777344 804.34277344 C23.97396058 807.27603896 27.73725834 810.20015058 31.5 813.125 C36.01356655 816.63435315 40.52624832 820.14481873 45.03515625 823.66015625 C52.41489169 829.41116722 59.81011911 835.1394433 67.25 840.8125 C72.90852314 845.12775355 78.53205538 849.48280386 84.11987305 853.88916016 C95.04884586 862.50608537 106.05428946 871.02526261 117.09375 879.5 C122.02854536 883.29599643 126.93545131 887.12798039 131.84765625 890.953125 C136.22144077 894.35742429 140.60358707 897.74997594 145 901.125 C150.07682926 905.02339336 155.1357412 908.94417765 160.1875 912.875 C160.94788574 913.46651855 161.70827148 914.05803711 162.49169922 914.66748047 C166.36063765 917.67828007 170.22701497 920.69230309 174.08984375 923.7109375 C181.23954245 929.29280064 188.41078837 934.8344217 195.6875 940.25 C201.48588326 944.56655046 207.15949998 949.01242197 212.78369141 953.55297852 C218.19247908 957.90875922 223.6987111 962.12830176 229.2253418 966.33300781 C234.34765335 970.23338162 239.42460942 974.18649899 244.47729492 978.17651367 C248.76832449 981.56170709 253.10276299 984.88511528 257.44824219 988.20019531 C262.73996403 992.26307962 267.89679687 996.49003927 273.03271484 1000.74755859 C276.40265465 1003.51915348 279.72138646 1005.92194554 283.5 1008.125 C284.551875 1009.23875 284.551875 1009.23875 285.625 1010.375 C290.5369335 1015.07337117 296.05922993 1019.57003709 302.890625 1020.671875 C307.78019689 1019.93103077 310.22885557 1017.75889974 313.875 1014.5625 C315.20284062 1013.44887957 316.53096404 1012.33559627 317.859375 1011.22265625 C318.80586914 1010.41465576 318.80586914 1010.41465576 319.77148438 1009.59033203 C321.84447851 1007.83297175 323.9703263 1006.15590664 326.125 1004.5 C326.81464844 1003.96632813 327.50429688 1003.43265625 328.21484375 1002.8828125 C329.95625707 1001.54326379 331.69861722 1000.20494588 333.44140625 998.8671875 C339.04616177 994.56480671 344.63656494 990.24670022 350.1875 985.875 C361.76945999 976.75383813 373.41498151 967.71475666 385.109375 958.73828125 C389.17038108 955.61452417 393.20877488 952.46177391 397.25 949.3125 C403.14431848 944.72029909 409.05851201 940.15599853 415 935.625 C423.11864315 929.43228831 431.1812417 923.16929983 439.23388672 916.89111328 C442.9869623 913.96612419 446.7436315 911.04575816 450.5 908.125 C455.05952048 904.57931401 459.61854842 901.03300102 464.17578125 897.484375 C473.94187685 889.88113026 483.73518354 882.31539626 493.5546875 874.78125 C505.36003767 865.713799 517.11781461 856.58479177 528.8125 847.375 C533.62810202 843.58296126 538.46984364 839.82733709 543.33422852 836.09790039 C547.99041942 832.52525622 552.62103073 828.9203151 557.25 825.3125 C563.1442832 820.72025427 569.0585125 816.15599815 575 811.625 C583.11864315 805.43228831 591.1812417 799.16929983 599.23388672 792.89111328 C602.9869623 789.96612419 606.7436315 787.04575816 610.5 784.125 C615.05952048 780.57931401 619.61854842 777.03300102 624.17578125 773.484375 C634.28075867 765.61717805 644.40284059 757.77378117 654.5859375 750.0078125 C661.80088845 744.50394293 668.99607919 738.97986951 676.12084961 733.35961914 C680.89697944 729.5928461 685.69587797 725.85598954 690.5 722.125 C695.95060273 717.89144966 701.39109541 713.64587651 706.8125 709.375 C713.33502099 704.23917872 719.91106024 699.17516891 726.5 694.125 C736.08765759 686.7695833 745.63501264 679.36371596 755.16943359 671.93945312 C758.94517268 668.99986661 762.72267744 666.06255128 766.5 663.125 C767.60879517 662.26249634 767.60879517 662.26249634 768.73999023 661.38256836 C772.53935898 658.42713641 776.33940318 655.47257952 780.140625 652.51953125 C783.90729237 649.59303787 787.67200594 646.66405002 791.43505859 643.73291016 C792.74735087 642.71106611 794.06012182 641.68983629 795.37353516 640.66943359 C817.04667745 623.82449615 839.27172159 606.53023806 856.34375 584.83984375 C858.29354873 582.38493411 860.31581128 580.01282144 862.37451172 577.64916992 C873.2784783 565.07109417 882.82087742 551.31715611 891.5 537.125 C891.9031543 536.46677246 892.30630859 535.80854492 892.72167969 535.13037109 C898.48878708 525.65520427 903.78499534 516.02674496 908.58398438 506.02636719 C909.45341835 504.2216892 910.34333996 502.4269236 911.234375 500.6328125 C919.2388409 484.14655016 925.38387845 466.70716421 930.5 449.125 C930.91129069 447.77078241 931.32275413 446.41661727 931.734375 445.0625 C934.35211045 436.26262512 936.39413572 427.37784883 938.1875 418.375 C938.49107422 416.89700928 938.49107422 416.89700928 938.80078125 415.38916016 C942.52668219 395.92443267 942.8768243 376.21710662 942.87060547 356.45922852 C942.87036283 352.46014411 942.91144 348.46179559 942.94921875 344.46289062 C943.02255557 327.32474024 941.49362701 310.98868158 938.5 294.125 C938.2509023 292.61853643 938.00421991 291.11166955 937.76098633 289.60424805 C930.25934191 244.0929945 912.84785847 195.56851218 885.5 158.125 C885.08508301 157.55604004 884.67016602 156.98708008 884.24267578 156.40087891 C879.31898509 149.71291304 874.08786396 143.37320919 868.453125 137.265625 C866.87097392 135.53158742 865.39053119 133.77800618 863.9375 131.9375 C861.96306611 129.65930705 860.08456169 127.82764044 857.8125 125.87890625 C853.81749752 122.41578681 849.91967817 118.86554977 846.0625 115.25 C845.03987061 114.29432129 845.03987061 114.29432129 843.99658203 113.31933594 C839.57415571 109.1581202 835.27388246 104.89681979 831.02197266 100.56201172 C823.77502039 93.17991047 816.40871626 86.44768982 808.08496094 80.30419922 C806.58268882 79.18651987 805.10681668 78.0336098 803.6328125 76.87890625 C757.67580514 41.16992962 698.99502049 18.64705921 641.5 11.125 C640.28948975 10.95057373 639.07897949 10.77614746 637.83178711 10.59643555 C622.88510237 8.62042797 607.8418217 8.78467824 592.79516602 8.80932617 C589.72861059 8.81395819 586.66245171 8.80702083 583.59594727 8.78881836 C566.03063191 8.68550293 548.83793287 8.89552825 531.5 12.125 C530.67055374 12.27923431 529.84110748 12.43346863 528.98652649 12.59237671 C523.45731499 13.63890219 517.97620403 14.82978485 512.5 16.125 C511.6229541 16.32963867 510.7459082 16.53427734 509.84228516 16.74511719 C480.14402501 23.77435336 452.95929582 35.1096311 426.5 50.125 C425.55721191 50.65963867 424.61442383 51.19427734 423.64306641 51.74511719 C406.04630146 61.78745581 389.71065368 72.73022492 374.5 86.125 C373.43265625 87.04345703 373.43265625 87.04345703 372.34375 87.98046875 C370.37803688 89.67629913 368.43616507 91.39550423 366.5 93.125 C365.56414063 93.95644531 364.62828125 94.78789063 363.6640625 95.64453125 C354.49922169 103.86108385 346.5463795 112.77655553 338.80859375 122.3515625 C336.49429563 125.13185297 334.08565427 127.78636855 331.625 130.4375 C324.91615967 137.7392146 318.84327912 145.5511662 312.98046875 153.54296875 C312.20316406 154.60128906 311.42585937 155.65960938 310.625 156.75 C309.94695313 157.69101563 309.26890625 158.63203125 308.5703125 159.6015625 C306.4363009 162.20264079 304.19513952 164.12477451 301.5 166.125 C297.83499014 162.65254757 295.00288751 159.16315475 292.1875 154.9375 C286.23978297 146.16307171 279.52345481 138.09312907 272.65258789 130.03369141 C268.83379617 125.54951927 265.13470294 120.98068183 261.47265625 116.3671875 C259.62159223 114.26320582 257.80493049 112.70287188 255.5 111.125 C255.83 110.465 256.16 109.805 256.5 109.125 C269.38537303 119.9308892 280.01336653 132.75825697 290.3125 146 C290.87453125 146.71800781 291.4365625 147.43601563 292.015625 148.17578125 C293.25556804 149.80402224 294.41926084 151.48996306 295.5625 153.1875 C297.40540006 155.4163921 297.40540006 155.4163921 300.5 155.5625 C305.93022456 154.77059225 308.15882493 152.65271657 311.5 148.375 C315.13354683 143.80453862 318.86131317 139.34776499 322.6875 134.9375 C325.98194277 131.13510805 329.17223585 127.32900182 332.125 123.25 C332.90875 122.21875 333.6925 121.1875 334.5 120.125 C335.16 120.125 335.82 120.125 336.5 120.125 C336.768125 119.526875 337.03625 118.92875 337.3125 118.3125 C338.49917406 116.12652146 339.59599113 114.71167406 341.5 113.125 C342.16 113.125 342.82 113.125 343.5 113.125 C343.76167969 112.54621094 344.02335938 111.96742187 344.29296875 111.37109375 C348.79212012 102.99888651 357.16348982 96.34843142 364.21875 90.1875 C365.81304244 88.74608492 367.35710786 87.24802541 368.859375 85.7109375 C371.82794097 82.8038507 374.96355123 80.28310807 378.25 77.75 C378.86689697 77.27103271 379.48379395 76.79206543 380.11938477 76.29858398 C381.34905757 75.34392096 382.57958528 74.39035791 383.81103516 73.43798828 C385.27224975 72.30205129 386.72128286 71.15047707 388.16796875 69.99609375 C391.36465161 67.44865112 394.47877488 65.03917349 398.0625 63.0625 C400.72524066 61.56168254 402.87233231 60.11644502 405.25 58.25 C409.13762971 55.25893606 413.24709045 52.97327379 417.59375 50.71484375 C419.84660503 49.48243515 421.97994546 48.20321146 424.140625 46.82421875 C446.61383658 32.66493378 471.93290715 22.19393782 497.5 15.125 C499.12010986 14.66697998 499.12010986 14.66697998 500.77294922 14.19970703 C515.14717814 10.1522618 529.42980444 6.27574021 544.28442383 4.44116211 C545.87478514 4.21421799 547.4580556 3.93530887 549.03393555 3.62329102 C558.38259118 1.80905972 567.57732629 1.77328966 577.0625 1.8125 C577.93016998 1.81365814 578.79783997 1.81481628 579.69180298 1.81600952 C613.17893177 1.90357107 649.93438102 3.52092117 681.62890625 15.1953125 C683.94271036 15.94454431 686.10737536 16.47570399 688.48046875 16.95703125 C694.90333601 18.34035654 701.05091456 20.53599039 707.25 22.6875 C708.20592041 23.01888474 708.20592041 23.01888474 709.18115234 23.35696411 C727.66943192 29.78948897 745.09335293 37.61535845 762.3046875 46.93701172 C764.15573804 47.93870344 766.01452247 48.92608422 767.875 49.91015625 C774.29603545 53.33045212 780.41494379 57.14106185 786.5 61.125 C787.24894531 61.60710937 787.99789063 62.08921875 788.76953125 62.5859375 C802.57398733 71.58992507 815.34389339 82.02759007 827.5 93.125 C829.2287478 94.66713635 830.95791059 96.20880762 832.6875 97.75 C836.76262476 101.41633481 840.66982049 105.20528383 844.5 109.125 C845.28375 109.90875 846.0675 110.6925 846.875 111.5 C849.25 113.875 851.625 116.25 854 118.625 C854.77988281 119.40359375 855.55976562 120.1821875 856.36328125 120.984375 C857.98098033 122.60503148 859.58703852 124.23731848 861.1875 125.875 C863.48963621 128.20012297 863.48963621 128.20012297 866.25 130.25 C871.05129782 134.1749684 874.68648761 139.27629598 878.5 144.125 C879.43392578 145.31222656 879.43392578 145.31222656 880.38671875 146.5234375 C881.53650936 147.996203 882.67986581 149.47401659 883.81640625 150.95703125 C884.94567291 152.41119134 886.09994284 153.84624997 887.27734375 155.26171875 C891.43077297 160.32399463 894.37772237 165.48864497 897.140625 171.42578125 C898.40207858 173.93056408 899.79921689 175.91002665 901.5 178.125 C904.89454388 183.87309431 907.88715849 189.77147541 910.51171875 195.90625 C911.54318459 198.22195197 912.69676017 200.44323365 913.875 202.6875 C916.44934531 207.75673553 918.419401 212.99207608 920.35693359 218.32836914 C921.49145145 221.45275833 922.66540544 224.50276191 924 227.55078125 C925.73210902 231.67807227 927.06609863 235.84890612 928.375 240.125 C928.89872803 241.81151238 929.42348078 243.49770685 929.94921875 245.18359375 C930.33859619 246.43245361 930.33859619 246.43245361 930.73583984 247.70654297 C932.23018547 252.43593205 933.82993667 257.1295666 935.41796875 261.828125 C936.3552071 264.68382598 937.19535648 267.5425814 938 270.4375 C938.95916275 273.77018414 940.21798584 276.49477009 941.9375 279.5 C944.50843724 284.43216057 945.65505344 289.40163485 946.75 294.8125 C946.99447876 295.99561768 946.99447876 295.99561768 947.24389648 297.20263672 C949.56648338 309.51321159 949.65674148 322.15244336 949.66796875 334.640625 C949.67120278 335.98940054 949.67456821 337.33817577 949.67805481 338.68695068 C949.68398289 341.49703784 949.68590165 344.30709456 949.68530273 347.1171875 C949.68522208 349.93431097 949.69207787 352.7512697 949.70581055 355.56835938 C950.02180787 421.49468085 950.02180787 421.49468085 935.76953125 448.390625 C931.6092002 456.28882523 928.81539154 463.94683382 926.453125 472.54931641 C926.22496094 473.37351074 925.99679687 474.19770508 925.76171875 475.046875 C925.56537842 475.78518555 925.36903809 476.52349609 925.16674805 477.28417969 C924.5 479.125 924.5 479.125 922.5 481.125 C921.90751924 482.98456832 921.37583366 484.86368258 920.875 486.75 C918.62487417 494.3716668 915.1966228 501.17693317 911.50537109 508.19067383 C910.44630073 510.22831697 909.42870629 512.28366499 908.4140625 514.34375 C906.70362865 517.7800835 904.76414407 520.96745722 902.6484375 524.16796875 C901.42496722 526.12923703 901.42496722 526.12923703 900.61328125 528.44921875 C899.21701751 531.80515089 897.30818518 534.73038348 895.3125 537.75 C894.49965274 538.99456493 893.6871567 540.23935932 892.875 541.484375 C892.4728125 542.09861328 892.070625 542.71285156 891.65625 543.34570312 C890.01078724 545.87782571 888.41424571 548.44006712 886.8125 551 C884.29721313 554.96596394 881.63424978 558.75413453 878.76171875 562.46875 C877.61336957 563.97618051 876.55116091 565.54825864 875.5 567.125 C874.84 567.125 874.18 567.125 873.5 567.125 C873.26410156 568.00800781 873.02820312 568.89101563 872.78515625 569.80078125 C871.35018028 573.51252759 869.69172037 575.46345514 866.9375 578.3125 C863.47369969 581.98502285 860.16002028 585.68764853 857 589.625 C853.77681069 593.60658679 850.48049465 597.49821611 847.0625 601.3125 C846.23878906 602.23417969 845.41507813 603.15585937 844.56640625 604.10546875 C842.5 606.125 842.5 606.125 840.5 606.125 C840.273125 606.7025 840.04625 607.28 839.8125 607.875 C838.15238361 610.72091381 836.10812043 612.12341921 833.5 614.125 C832.7884375 614.85203125 832.076875 615.5790625 831.34375 616.328125 C827.84486999 619.76933117 824.11499837 622.84010066 820.3125 625.9375 C819.55291992 626.55915039 818.79333984 627.18080078 818.01074219 627.82128906 C815.84336219 629.59274988 813.67259054 631.35993558 811.5 633.125 C810.54996094 633.89714844 809.59992188 634.66929687 808.62109375 635.46484375 C803.11083696 639.90391388 797.51009751 644.22409767 791.890625 648.5234375 C789.55839025 650.30858808 787.23688884 652.10663874 784.921875 653.9140625 C784.33833252 654.36797363 783.75479004 654.82188477 783.15356445 655.28955078 C782.03804234 656.1576552 780.92448242 657.02828903 779.81323242 657.90185547 C777.13833034 659.97765772 774.53825992 661.64965871 771.5 663.125 C770.36748593 664.29082331 769.23654861 665.45826094 768.1171875 666.63671875 C766.05353457 668.53587761 763.81742536 670.0468127 761.5 671.625 C757.75270117 674.18048041 754.66794901 676.8690524 751.5 680.125 C750.07709939 681.06457273 748.65360749 682.00327194 747.22607422 682.93579102 C743.97521064 685.17553027 740.97786017 687.73614754 737.9375 690.25 C731.96317775 695.14893053 725.91602325 699.91499707 719.7734375 704.6015625 C715.51396102 707.86672958 711.337292 711.23463567 707.15380859 714.59619141 C702.41472597 718.40179994 697.6415953 722.16116538 692.84887695 725.89892578 C689.66929675 728.38838188 686.52764446 730.91578716 683.41796875 733.4921875 C677.05796147 738.75497443 670.93723578 743.70861967 663.7109375 747.75390625 C660.44275759 749.78063973 657.76890527 752.33730177 654.953125 754.94140625 C651.70459106 757.83301528 648.26193199 760.43313075 644.79418945 763.05493164 C640.93470967 765.98689218 637.17464028 769.01874981 633.43896484 772.10668945 C627.4608869 777.04740752 621.56484948 781.66064628 614.83203125 785.5625 C612.01945524 787.44697304 609.87494398 789.71707069 607.5 792.125 C605.75741631 793.51533094 603.98454296 794.86831288 602.1875 796.1875 C601.13949219 796.96222656 600.09148438 797.73695313 599.01171875 798.53515625 C598.44759277 798.95039551 597.8834668 799.36563477 597.30224609 799.79345703 C594.02047847 802.21810626 590.76199358 804.67385147 587.5 807.125 C583.78575145 809.91418547 580.07067191 812.70175755 576.33984375 815.46875 C569.53344988 820.52545177 562.89862548 825.76838307 556.29296875 831.08203125 C551.5545642 834.89138431 546.77177139 838.64317217 541.984375 842.390625 C539.59028085 844.26532245 537.20623051 846.15194013 534.828125 848.046875 C529.32217103 852.42445735 523.82054234 856.66334702 517.90234375 860.4765625 C509.50398581 866.23933819 501.66989917 872.9407336 493.78125 879.37109375 C492.10391871 880.66068579 490.37016906 881.87771169 488.609375 883.05078125 C484.28779753 885.9336426 480.22173477 889.12565229 476.109375 892.296875 C473.5 894.125 473.5 894.125 471.5 894.125 C471.29375 894.69476562 471.0875 895.26453125 470.875 895.8515625 C469.01370984 898.92903657 466.42894736 900.53843376 463.5 902.5 C457.60631523 906.57508876 451.89473485 910.83653289 446.25 915.25 C445.477771 915.85328125 444.70554199 916.4565625 443.90991211 917.078125 C439.93773628 920.19067949 435.98847122 923.32926331 432.0625 926.5 C427.93620849 929.82219367 423.68558675 932.94207875 419.3828125 936.03125 C417.31666078 937.53186968 415.27301838 939.04690779 413.2421875 940.59375 C412.43080322 941.21068726 412.43080322 941.21068726 411.60302734 941.84008789 C410.07693238 943.00383408 408.55400487 944.17173047 407.03125 945.33984375 C404.5 947.125 404.5 947.125 401.5 948.125 C401.5 948.785 401.5 949.445 401.5 950.125 C399.77731422 951.51998465 397.99360204 952.8398448 396.1875 954.125 C391.91245106 957.22648129 387.93048569 960.45123903 384.0625 964.0625 C378.71261372 969.02915661 373.03135279 973.43044273 367.21337891 977.81884766 C364.23556078 980.0889142 361.30921976 982.42405005 358.375 984.75 C354.2367185 988.02568907 350.05520946 991.19390765 345.75 994.25 C341.09638534 997.56715684 336.97709296 1001.25598241 332.88671875 1005.2421875 C330.19512226 1007.36550911 327.7862677 1008.22400308 324.5 1009.125 C324.5 1009.785 324.5 1010.445 324.5 1011.125 C321.0144226 1014.03700137 317.24242918 1016.55557101 313.5 1019.125 C312.84902344 1019.59164062 312.19804688 1020.05828125 311.52734375 1020.5390625 C306.95848751 1023.54176235 302.77569492 1024.02837242 297.5 1023.125 C293.7103924 1021.8531454 290.33679705 1020.69770368 288.3984375 1017.0546875 C287.95371094 1016.09949219 287.95371094 1016.09949219 287.5 1015.125 C285.58333333 1013.95833333 285.58333333 1013.95833333 283.5 1013.125 C282.51 1012.465 281.52 1011.805 280.5 1011.125 C280.5 1010.465 280.5 1009.805 280.5 1009.125 C279.984375 1008.898125 279.46875 1008.67125 278.9375 1008.4375 C274.54856671 1006.07422823 270.66528541 1003.31374753 267.171875 999.75 C263.42479214 996.06865543 259.20872796 993.1704682 254.94921875 990.11328125 C254.14097656 989.45714844 253.33273437 988.80101562 252.5 988.125 C252.5 987.465 252.5 986.805 252.5 986.125 C251.92765625 985.85171875 251.3553125 985.5784375 250.765625 985.296875 C244.06329667 981.83015345 237.0991274 977.19015067 231.5 972.125 C231.5 971.465 231.5 970.805 231.5 970.125 C230.97921875 969.89554688 230.4584375 969.66609375 229.921875 969.4296875 C226.64563132 967.66474332 223.72800699 965.46695646 220.75 963.25 C220.09604248 962.7660376 219.44208496 962.2820752 218.76831055 961.78344727 C217.38198757 960.75610793 215.99684181 959.72717839 214.61279297 958.69677734 C212.53843629 957.15359404 210.45900027 955.61746842 208.37890625 954.08203125 C201.12083795 948.70385042 194.04998626 943.18446824 187.15234375 937.3515625 C184.15002347 934.83120527 181.07879679 932.42145615 177.97265625 930.03125 C174.82133783 927.60179757 171.69124544 925.14591924 168.5625 922.6875 C167.95986328 922.21425293 167.35722656 921.74100586 166.73632812 921.25341797 C162.45891443 917.89011029 158.20675244 914.49682698 153.9765625 911.07421875 C149.28598119 907.38242052 144.47861034 903.84463436 139.67578125 900.30078125 C133.29425374 895.58002012 127.00740181 890.81689608 121 885.625 C115.68790263 881.03524858 110.16908879 876.79702843 104.52929688 872.61865234 C99.96170703 869.23260153 95.45932414 865.77735379 91 862.25 C87.52752889 859.50376924 84.05651533 856.76224654 80.5 854.125 C76.99258769 851.52033938 73.55639866 848.82848271 70.125 846.125 C57.43616507 836.13249931 44.70556433 826.20658833 31.7578125 816.55078125 C31.19094727 816.12619629 30.62408203 815.70161133 30.04003906 815.26416016 C28.72762196 814.29337097 27.39324131 813.3523905 26.0546875 812.41796875 C25.54164063 811.99128906 25.02859375 811.56460938 24.5 811.125 C24.5 810.465 24.5 809.805 24.5 809.125 C23.63503906 808.898125 22.77007812 808.67125 21.87890625 808.4375 C18.04878357 806.9497298 15.43854297 804.83539408 12.4375 802.125 C11.29899767 801.12907862 10.15831022 800.13565053 9.015625 799.14453125 C8.43619141 798.64131348 7.85675781 798.1380957 7.25976562 797.61962891 C-1.22368114 790.41434851 -10.3670109 783.94797057 -19.2890625 777.30078125 C-31.47118048 768.21570527 -43.39159585 758.83076103 -55.24633789 749.32421875 C-59.16629208 746.18292422 -63.11343934 743.0813543 -67.08984375 740.01171875 C-69.01128809 738.50757351 -70.91716736 736.98888162 -72.81640625 735.45703125 C-79.34108892 730.19530231 -85.90632656 725.01270336 -92.625 720 C-93.2938623 719.50097168 -93.96272461 719.00194336 -94.65185547 718.48779297 C-95.97210126 717.50332851 -97.2924124 716.51895166 -98.61279297 715.53466797 C-105.7883506 710.17481418 -112.84613875 704.73516112 -119.625 698.875 C-126.45988469 692.97882106 -133.72144365 687.69078494 -141.01953125 682.38671875 C-142.13255615 681.57533447 -142.13255615 681.57533447 -143.26806641 680.74755859 C-144.79173314 679.63989188 -146.32029196 678.53893127 -147.85302734 677.44384766 C-148.58602051 676.91194824 -149.31901367 676.38004883 -150.07421875 675.83203125 C-150.73381592 675.35870361 -151.39341309 674.88537598 -152.07299805 674.39770508 C-152.77936401 673.76771606 -152.77936401 673.76771606 -153.5 673.125 C-153.5 672.465 -153.5 671.805 -153.5 671.125 C-154.3353125 671.0321875 -154.3353125 671.0321875 -155.1875 670.9375 C-157.5 670.125 -157.5 670.125 -159.79296875 667.80859375 C-162.43526772 665.18917183 -164.98723319 663.35407664 -168.125 661.375 C-173.33618307 657.98389925 -178.08191227 654.27387953 -182.84375 650.28515625 C-186.1487559 647.5974088 -189.60725269 645.19870427 -193.1171875 642.7890625 C-197.03283387 640.05452913 -200.75488967 637.08651801 -204.5 634.125 C-205.59590725 633.26765759 -206.69229556 632.41092988 -207.7890625 631.5546875 C-220.89543083 621.31347426 -233.75750153 610.94135066 -245.5 599.125 C-246.30179687 598.34640625 -247.10359375 597.5678125 -247.9296875 596.765625 C-252.57313315 592.22602638 -256.84165252 587.65729839 -260.73046875 582.45703125 C-262.70130567 579.85970312 -264.78105624 577.37398988 -266.875 574.875 C-270.28874225 570.7209281 -273.48719336 566.46909231 -276.5625 562.0625 C-276.95679199 561.50208008 -277.35108398 560.94166016 -277.75732422 560.36425781 C-280.5 556.37245473 -280.5 556.37245473 -280.5 554.125 C-281.49 553.795 -282.48 553.465 -283.5 553.125 C-284.89453125 551.36254883 -284.89453125 551.36254883 -286.3125 549.08203125 C-287.08980469 547.84163086 -287.08980469 547.84163086 -287.8828125 546.57617188 C-288.41648437 545.70541016 -288.95015625 544.83464844 -289.5 543.9375 C-290.03367187 543.08607422 -290.56734375 542.23464844 -291.1171875 541.35742188 C-293.80499057 537.03487292 -296.29001252 532.71497399 -298.5 528.125 C-299.79459194 525.65707553 -301.11794861 523.20465271 -302.4375 520.75 C-305.20645998 515.57863401 -307.91337335 510.39063283 -310.5 505.125 C-310.82484375 504.49722656 -311.1496875 503.86945313 -311.484375 503.22265625 C-313.74698491 498.82797162 -315.63369125 494.36772864 -317.43359375 489.765625 C-318.55237671 486.99530528 -319.75886339 484.28009576 -321 481.5625 C-321.4228125 480.63566406 -321.845625 479.70882813 -322.28125 478.75390625 C-323.01515939 477.17082606 -323.76141094 475.59326639 -324.53125 474.02734375 C-329.25253509 464.14691246 -332.27746745 452.99014391 -334.04296875 442.203125 C-334.46059637 440.02602058 -334.46059637 440.02602058 -335.48828125 437.69140625 C-336.53264918 435.0421795 -337.04509544 432.61909866 -337.5 429.8125 C-338.05111982 426.57897666 -338.63984667 423.41509546 -339.5 420.25 C-340.71498484 415.65583859 -341.29974404 410.97688769 -341.9375 406.2734375 C-342.4254574 403.09984975 -342.4254574 403.09984975 -343.52734375 400.05859375 C-344.46974254 397.21625846 -344.85034125 394.78723645 -345.0625 391.8125 C-345.06002019 388.66326567 -345.06002019 388.66326567 -346.5 386.125 C-346.59905152 384.28927369 -346.62799207 382.44972425 -346.62939453 380.61132812 C-346.63254669 379.43340698 -346.63569885 378.25548584 -346.63894653 377.04187012 C-346.6369223 375.75961548 -346.63489807 374.47736084 -346.6328125 373.15625 C-346.63376923 371.85046997 -346.63472595 370.54468994 -346.63571167 369.19934082 C-346.63718833 366.43187278 -346.63503511 363.66443696 -346.63037109 360.89697266 C-346.62467381 357.34237351 -346.62795298 353.78784986 -346.63394356 350.23325348 C-346.63841747 346.85341286 -346.63528886 343.47359277 -346.6328125 340.09375 C-346.63483673 338.81149536 -346.63686096 337.52924072 -346.63894653 336.20812988 C-346.63579437 335.03020874 -346.63264221 333.8522876 -346.62939453 332.63867188 C-346.62859894 331.59578003 -346.62780334 330.55288818 -346.62698364 329.47839355 C-346.5 327.125 -346.5 327.125 -345.5 326.125 C-345.05073333 322.60637361 -344.68019835 319.08882825 -344.33789062 315.55859375 C-343.8917446 311.35829218 -343.09718322 308.05219169 -341.5 304.125 C-341.10462236 301.4699293 -340.76742969 298.85436831 -340.5 296.1875 C-340.00229137 291.25188941 -339.11777948 286.82607685 -337.5 282.125 C-337.14519013 280.00665366 -336.83335281 277.8807088 -336.5625 275.75 C-335.79145932 270.46627937 -334.57246087 266.01215191 -332.5 261.125 C-330.25427004 255.29415854 -328.26243102 249.40931536 -326.43530273 243.43603516 C-320.33340747 223.55855853 -311.61845031 205.25497395 -301.5 187.125 C-301.13745117 186.46483887 -300.77490234 185.80467773 -300.40136719 185.12451172 C-293.88134138 173.28740744 -287.1130534 161.57108785 -278.5 151.125 C-277.59883743 149.8997351 -276.70311107 148.67045579 -275.8125 147.4375 C-272.4606957 142.93855412 -268.77840039 138.73238255 -265.11254883 134.48974609 C-259.70916966 128.23160933 -254.36483816 121.91143132 -249.375 115.31640625 C-248.75625 114.59324219 -248.1375 113.87007813 -247.5 113.125 C-246.84 113.125 -246.18 113.125 -245.5 113.125 C-245.273125 112.57328125 -245.04625 112.0215625 -244.8125 111.453125 C-243.11274074 108.43807583 -240.95195184 106.31269631 -238.5 103.875 C-237.613125 102.98296875 -236.72625 102.0909375 -235.8125 101.171875 C-233.5 99.125 -233.5 99.125 -231.5 99.125 C-231.273125 98.5475 -231.04625 97.97 -230.8125 97.375 C-229.1591307 94.54065264 -227.07036056 93.15737811 -224.5 91.125 C-223.7575 90.196875 -223.015 89.26875 -222.25 88.3125 C-218.90381962 84.18861409 -214.73961229 81.27857462 -210.5 78.125 C-209.23601911 77.15880675 -207.97307724 76.19125336 -206.7109375 75.22265625 C-200.38504447 70.38982177 -194.13189451 65.61915025 -187.18408203 61.70239258 C-184.11437936 59.89837685 -181.1636903 57.94866829 -178.19140625 55.98828125 C-171.19799948 51.44390596 -163.97827489 47.44002108 -156.59594727 43.56738281 C-154.56315443 42.50034352 -152.53619442 41.42281784 -150.50976562 40.34375 C-136.15824603 32.73519963 -121.89182384 26.230402 -106.4375 21.1875 C-105.2777063 20.80489014 -105.2777063 20.80489014 -104.09448242 20.41455078 C-82.26006188 13.22356058 -60.15236486 7.14432563 -37.5 3.125 C-36.35789062 2.91230469 -35.21578125 2.69960937 -34.0390625 2.48046875 C-22.72791692 0.45958284 -11.47404837 -0.04638241 0 0 Z " fill="#F7F8FD" transform="translate(346.5,3.875)"/>
</svg>
